<?xml version="1.0" standalone="no"?>
<!DOCTYPE svg PUBLIC "-//W3C//DTD SVG 20010904//EN"
 "http://www.w3.org/TR/2001/REC-SVG-20010904/DTD/svg10.dtd">
<svg version="1.0" xmlns="http://www.w3.org/2000/svg"
 width="978.000000pt" height="856.000000pt" viewBox="0 0 978.000000 856.000000"
 preserveAspectRatio="xMidYMid meet">

<g transform="translate(0.000000,856.000000) scale(0.100000,-0.100000)"
fill="#000000" stroke="none">
<path d="M310 8333 c0 -10 4 -14 8 -8 4 6 11 13 16 18 5 4 2 7 -7 7 -10 0 -17
-8 -17 -17z"/>
<path d="M348 8280 c-3 -64 -1 -70 17 -70 18 0 20 6 17 65 -3 59 -2 65 16 65
11 0 23 -6 25 -12 3 -8 6 -6 6 5 1 13 -7 17 -38 17 l-39 0 -4 -70z"/>
<path d="M540 8285 c0 -51 3 -65 15 -65 12 0 15 14 15 65 0 51 -3 65 -15 65
-12 0 -15 -14 -15 -65z"/>
<path d="M655 8280 c0 -56 3 -70 15 -70 12 0 14 13 12 70 -5 96 -27 96 -27 0z"/>
<path d="M894 8342 c-7 -4 -14 -35 -15 -70 -4 -57 -2 -62 16 -62 18 0 20 6 17
52 -4 81 -6 88 -18 80z"/>
<path d="M478 8298 c5 -7 9 -28 9 -47 -1 -19 4 -36 11 -39 20 -6 16 84 -4 92
-23 9 -28 7 -16 -6z"/>
<path d="M586 8302 c19 -12 26 -50 14 -72 -11 -20 -10 -21 9 -10 37 19 23 90
-18 90 -11 0 -12 -3 -5 -8z"/>
<path d="M716 8287 c-9 -12 -13 -32 -10 -44 7 -26 41 -40 58 -23 6 6 7 11 1
10 -22 -5 -35 1 -35 15 0 9 9 15 25 15 28 0 33 21 11 39 -12 10 -13 8 -9 -8 4
-15 1 -21 -12 -21 -12 0 -16 6 -12 20 7 26 1 25 -17 -3z"/>
<path d="M436 8292 c-3 -6 -1 -14 5 -17 15 -10 25 3 12 16 -7 7 -13 7 -17 1z"/>
<path d="M440 8245 c-13 -15 -6 -35 13 -35 7 0 12 11 12 25 0 28 -7 31 -25 10z"/>
<path d="M342 8084 c4 -3 -2 -35 -12 -70 l-17 -64 48 0 c27 0 49 4 49 8 0 4
-16 6 -35 4 -29 -3 -35 -1 -35 14 0 28 16 48 33 41 9 -3 18 0 20 7 4 10 -1 12
-15 8 -16 -4 -19 -1 -16 19 3 27 45 40 59 17 7 -10 9 -9 9 5 0 14 -9 17 -47
17 -25 0 -44 -3 -41 -6z"/>
<path d="M640 8033 c-7 -32 -15 -64 -17 -70 -3 -7 2 -13 12 -13 9 0 13 4 10
10 -5 8 2 46 21 113 3 9 1 17 -4 17 -5 0 -15 -26 -22 -57z"/>
<path d="M970 8080 c0 -5 5 -10 10 -10 6 0 10 5 10 10 0 6 -4 10 -10 10 -5 0
-10 -4 -10 -10z"/>
<path d="M1415 8080 c3 -5 11 -10 16 -10 6 0 7 5 4 10 -3 6 -11 10 -16 10 -6
0 -7 -4 -4 -10z"/>
<path d="M1860 8080 c0 -5 5 -10 10 -10 6 0 10 5 10 10 0 6 -4 10 -10 10 -5 0
-10 -4 -10 -10z"/>
<path d="M2645 8080 c3 -5 11 -10 16 -10 6 0 7 5 4 10 -3 6 -11 10 -16 10 -6
0 -7 -4 -4 -10z"/>
<path d="M2951 8083 c4 -27 -3 -43 -20 -43 -23 0 -63 -47 -59 -69 2 -9 12 -17
23 -19 16 -2 17 -1 5 7 -19 13 -2 64 23 69 18 4 25 -32 7 -43 -11 -7 -2 -35
12 -35 5 0 7 4 4 8 -3 5 1 30 9 57 18 57 19 75 5 75 -5 0 -9 -3 -9 -7z"/>
<path d="M3078 8075 c-7 -9 -17 -21 -23 -28 -5 -7 -10 -23 -10 -37 -1 -14 -4
-40 -8 -58 -4 -19 -3 -31 2 -27 5 3 11 0 13 -6 2 -7 4 3 4 22 0 56 12 89 33
89 17 0 18 -4 6 -55 -7 -30 -9 -53 -4 -49 5 3 12 23 15 45 4 22 13 47 21 55 8
8 10 14 5 14 -6 0 -8 9 -5 20 4 15 11 19 25 14 14 -4 18 -2 14 5 -4 6 -18 10
-31 9 -19 -2 -25 -8 -25 -25 0 -17 -6 -23 -21 -23 -20 0 -21 1 -5 25 18 28 14
34 -6 10z"/>
<path d="M3632 8039 c-7 -29 -10 -54 -8 -57 3 -2 8 13 12 34 6 32 8 35 15 19
4 -11 8 -36 8 -55 l1 -35 35 53 c20 28 37 52 39 52 7 0 -16 -74 -26 -87 -8
-10 -5 -13 8 -13 15 0 22 14 35 70 19 83 7 91 -34 25 -16 -25 -33 -45 -38 -45
-5 0 -9 20 -9 45 0 63 -23 59 -38 -6z"/>
<path d="M3790 8081 c0 -4 11 -6 25 -4 l24 5 -18 -66 c-14 -49 -15 -66 -6 -66
7 0 18 26 25 61 13 61 34 85 51 58 7 -11 9 -11 9 4 0 14 -9 17 -55 17 -30 0
-55 -4 -55 -9z"/>
<path d="M4005 8080 c3 -5 11 -10 16 -10 6 0 7 5 4 10 -3 6 -11 10 -16 10 -6
0 -7 -4 -4 -10z"/>
<path d="M4746 8024 c-17 -65 -15 -100 2 -53 l9 23 12 -22 c6 -12 16 -22 21
-22 5 0 1 16 -10 36 -17 29 -19 42 -11 70 5 19 6 34 1 34 -4 0 -15 -30 -24
-66z"/>
<path d="M1390 8071 c0 -5 -7 -17 -16 -25 -8 -9 -11 -16 -6 -16 5 0 4 -23 -3
-55 -16 -67 -2 -65 15 2 6 26 17 51 23 55 9 6 9 8 0 8 -6 0 -9 9 -6 20 3 11 3
20 -1 20 -3 0 -6 -4 -6 -9z"/>
<path d="M2620 8071 c0 -5 -7 -17 -16 -25 -8 -9 -11 -16 -6 -16 5 0 4 -23 -3
-55 -16 -67 -2 -65 15 2 6 26 17 51 23 55 9 6 9 8 0 8 -6 0 -9 9 -6 20 3 11 3
20 -1 20 -3 0 -6 -4 -6 -9z"/>
<path d="M3980 8071 c0 -5 -7 -17 -16 -25 -8 -9 -11 -16 -6 -16 5 0 4 -23 -3
-55 -7 -30 -10 -53 -5 -50 4 3 13 27 20 54 7 31 18 52 28 54 16 4 16 5 0 6
-11 1 -15 7 -11 21 3 11 3 20 -1 20 -3 0 -6 -4 -6 -9z"/>
<path d="M910 8047 c-18 -14 -26 -97 -10 -97 6 0 9 4 6 9 -8 12 12 63 27 73 9
6 9 8 -1 8 -7 0 -10 5 -7 10 8 13 3 12 -15 -3z"/>
<path d="M2425 8042 c-6 -4 -10 -16 -11 -27 0 -11 -4 -30 -8 -42 -5 -14 -3
-23 3 -23 6 0 11 8 11 18 0 9 7 29 14 44 14 27 9 43 -9 30z"/>
<path d="M3525 8042 c-6 -4 -10 -16 -11 -27 0 -11 -4 -30 -8 -42 -5 -14 -3
-23 3 -23 6 0 11 8 11 18 0 9 7 29 14 44 14 27 9 43 -9 30z"/>
<path d="M448 8005 c4 -37 22 -60 22 -28 0 27 -11 63 -19 63 -4 0 -5 -16 -3
-35z"/>
<path d="M501 8024 c0 -11 3 -14 6 -6 3 7 2 16 -1 19 -3 4 -6 -2 -5 -13z"/>
<path d="M582 8007 c-14 -40 -15 -57 -3 -57 8 0 25 79 18 86 -2 2 -9 -11 -15
-29z"/>
<path d="M687 7998 c-5 -39 -3 -58 7 -47 8 10 15 89 7 89 -4 0 -11 -19 -14
-42z"/>
<path d="M742 8015 c-14 -31 -16 -65 -3 -65 8 0 25 79 18 86 -2 2 -9 -7 -15
-21z"/>
<path d="M800 8020 c-25 -25 -27 -70 -3 -70 13 0 14 3 6 11 -13 13 -7 36 15
62 21 24 7 22 -18 -3z"/>
<path d="M846 8026 c3 -8 1 -23 -4 -33 -9 -18 -6 -43 6 -43 4 0 7 10 7 23 1
12 4 32 9 45 5 16 4 22 -8 22 -9 0 -13 -6 -10 -14z"/>
<path d="M956 8008 c-9 -47 -8 -52 1 -55 4 -2 8 7 8 20 1 12 4 32 9 45 4 13 3
22 -2 22 -5 0 -13 -15 -16 -32z"/>
<path d="M1067 8021 c3 -12 -2 -33 -11 -48 l-17 -28 25 28 c30 32 31 40 12 56
-12 10 -13 8 -9 -8z"/>
<path d="M1112 7998 c-6 -23 -9 -44 -7 -47 5 -5 27 48 30 72 3 34 -13 16 -23
-25z"/>
<path d="M1164 8012 c-1 -15 -3 -33 -5 -41 -2 -7 1 -15 6 -17 6 -2 11 16 13
41 1 25 -1 45 -5 45 -5 0 -9 -12 -9 -28z"/>
<path d="M1271 8014 c-25 -32 -26 -38 -7 -53 12 -10 13 -8 9 8 -3 12 2 32 11
46 22 33 13 32 -13 -1z"/>
<path d="M1326 8027 c2 -7 0 -26 -6 -42 -9 -25 -9 -26 5 -15 17 14 20 56 5 65
-5 3 -7 0 -4 -8z"/>
<path d="M1487 8013 c-3 -16 -9 -36 -12 -45 -4 -10 -3 -18 3 -18 10 0 24 37
27 73 3 28 -12 20 -18 -10z"/>
<path d="M1525 8030 c3 -5 8 -10 11 -10 2 0 4 5 4 10 0 6 -5 10 -11 10 -5 0
-7 -4 -4 -10z"/>
<path d="M1561 8016 c-29 -31 -24 -60 9 -63 15 -1 18 0 8 3 -18 6 -26 34 -9
34 5 0 8 8 7 17 0 10 8 19 19 21 17 4 18 2 6 -12 -7 -9 -9 -16 -3 -16 12 0 23
26 15 34 -12 12 -30 6 -52 -18z"/>
<path d="M1651 8016 c-23 -24 -25 -56 -5 -63 7 -2 10 6 6 22 -3 16 2 33 13 45
26 29 13 25 -14 -4z"/>
<path d="M1694 8016 c-2 -21 -8 -53 -19 -87 -4 -10 -2 -19 3 -19 5 0 16 27 25
60 20 71 20 67 5 67 -7 0 -14 -10 -14 -21z"/>
<path d="M1742 7995 c-1 -25 1 -45 6 -45 4 0 8 8 8 18 0 9 3 29 7 45 5 19 4
27 -5 27 -8 0 -14 -17 -16 -45z"/>
<path d="M1798 8013 c-15 -30 -13 -63 3 -63 6 0 8 4 5 9 -3 4 -1 23 4 41 12
43 6 50 -12 13z"/>
<path d="M1850 8026 c0 -7 -3 -28 -6 -45 -4 -17 -2 -31 3 -31 5 0 10 6 10 13
0 6 3 27 7 45 5 21 4 32 -3 32 -6 0 -11 -6 -11 -14z"/>
<path d="M1907 8013 c-3 -16 -9 -36 -12 -45 -4 -10 -3 -18 3 -18 10 0 24 37
27 73 3 28 -12 20 -18 -10z"/>
<path d="M1945 8030 c3 -5 8 -10 11 -10 2 0 4 5 4 10 0 6 -5 10 -11 10 -5 0
-7 -4 -4 -10z"/>
<path d="M1989 8019 c-25 -25 -22 -63 6 -67 18 -2 18 -2 3 8 -10 6 -18 15 -18
20 0 6 8 10 18 11 11 0 12 2 4 6 -10 4 -9 9 4 24 23 26 9 24 -17 -2z"/>
<path d="M2027 8021 c-4 -17 -3 -21 5 -13 5 5 8 16 6 23 -3 8 -7 3 -11 -10z"/>
<path d="M2064 7995 c-12 -51 -1 -61 15 -14 13 37 14 59 3 59 -4 0 -12 -20
-18 -45z"/>
<path d="M2104 8028 c-4 -7 -3 -8 4 -4 15 9 16 -13 2 -48 -6 -17 -6 -26 0 -26
6 0 10 6 10 14 0 8 11 28 25 43 l26 28 -6 -42 c-5 -30 -3 -43 5 -43 6 0 9 4 6
9 -4 5 -1 22 4 37 13 34 -1 54 -25 34 -10 -8 -15 -9 -15 -1 0 15 -27 14 -36
-1z"/>
<path d="M2258 8033 c10 -4 10 -8 1 -19 -15 -19 -33 -18 -25 2 3 9 2 12 -5 8
-33 -20 -25 -74 10 -74 14 1 14 2 -1 11 -25 14 -22 23 12 36 32 12 41 44 13
42 -12 0 -13 -2 -5 -6z"/>
<path d="M2310 8026 c0 -7 -3 -29 -6 -47 l-5 -34 15 25 c17 28 21 70 6 70 -5
0 -10 -6 -10 -14z"/>
<path d="M2363 8028 c0 -7 -3 -28 -7 -45 -5 -22 -4 -33 3 -33 6 0 11 6 11 14
0 7 3 28 6 45 4 17 2 31 -3 31 -5 0 -10 -6 -10 -12z"/>
<path d="M2475 8030 c-4 -6 1 -22 10 -36 9 -13 13 -30 9 -37 -5 -9 -4 -9 6 0
11 10 11 18 2 38 -15 33 -15 33 6 38 13 4 12 5 -5 6 -12 0 -25 -4 -28 -9z"/>
<path d="M2707 8021 c3 -12 -2 -33 -11 -48 l-17 -28 25 28 c30 32 31 40 12 56
-12 10 -13 8 -9 -8z"/>
<path d="M2757 8013 c-3 -16 -9 -36 -12 -45 -4 -10 -3 -18 3 -18 10 0 24 37
27 73 3 28 -12 20 -18 -10z"/>
<path d="M2795 8030 c3 -5 8 -10 11 -10 2 0 4 5 4 10 0 6 -5 10 -11 10 -5 0
-7 -4 -4 -10z"/>
<path d="M2991 8003 c-13 -46 -13 -53 -3 -53 4 0 12 20 18 45 12 54 -1 61 -15
8z"/>
<path d="M3198 8033 c10 -4 10 -8 1 -19 -15 -19 -33 -18 -25 2 3 9 2 12 -5 8
-33 -20 -25 -74 10 -74 14 1 14 2 -1 11 -25 14 -22 23 12 36 32 12 41 44 13
42 -12 0 -13 -2 -5 -6z"/>
<path d="M3247 8013 c-3 -16 -9 -36 -12 -45 -4 -10 -3 -18 3 -18 10 0 24 37
27 73 3 28 -12 20 -18 -10z"/>
<path d="M3285 8030 c3 -5 8 -10 11 -10 2 0 4 5 4 10 0 6 -5 10 -11 10 -5 0
-7 -4 -4 -10z"/>
<path d="M3329 8019 c-25 -25 -22 -63 6 -67 18 -2 18 -2 3 8 -10 6 -18 15 -18
20 0 6 8 10 18 11 11 0 12 2 4 6 -10 4 -9 9 4 24 23 26 9 24 -17 -2z"/>
<path d="M3367 8021 c-4 -17 -3 -21 5 -13 5 5 8 16 6 23 -3 8 -7 3 -11 -10z"/>
<path d="M3410 8026 c0 -7 -3 -29 -6 -47 l-5 -34 15 25 c17 28 21 70 6 70 -5
0 -10 -6 -10 -14z"/>
<path d="M3463 8028 c0 -7 -3 -28 -7 -45 -5 -22 -4 -33 3 -33 6 0 11 6 11 14
0 7 3 28 6 45 4 17 2 31 -3 31 -5 0 -10 -6 -10 -12z"/>
<path d="M4017 8013 c-3 -16 -9 -36 -12 -45 -4 -10 -3 -18 3 -18 10 0 24 37
27 73 3 28 -12 20 -18 -10z"/>
<path d="M4055 8030 c3 -5 8 -10 11 -10 2 0 4 5 4 10 0 6 -5 10 -11 10 -5 0
-7 -4 -4 -10z"/>
<path d="M4142 8007 c-14 -40 -15 -57 -3 -57 8 0 25 79 18 86 -2 2 -9 -11 -15
-29z"/>
<path d="M4193 8028 c0 -7 -3 -29 -8 -48 -5 -26 -4 -32 4 -24 15 14 27 84 14
84 -5 0 -10 -6 -10 -12z"/>
<path d="M4243 8028 c0 -7 -3 -29 -8 -48 -5 -26 -4 -32 4 -24 15 14 27 84 14
84 -5 0 -10 -6 -10 -12z"/>
<path d="M4293 8028 c0 -7 -3 -28 -7 -45 -5 -22 -4 -33 3 -33 6 0 11 6 11 14
0 7 3 28 6 45 4 17 2 31 -3 31 -5 0 -10 -6 -10 -12z"/>
<path d="M4351 8016 c-29 -31 -24 -60 9 -63 15 -1 18 0 8 3 -18 6 -26 34 -9
34 5 0 8 8 7 17 0 10 8 19 19 21 17 4 18 2 6 -12 -7 -9 -9 -16 -3 -16 12 0 23
26 15 34 -12 12 -30 6 -52 -18z"/>
<path d="M4429 8022 c6 -11 11 -31 12 -44 l0 -23 16 23 c20 29 33 28 33 -4 0
-14 4 -23 8 -20 4 2 6 24 4 47 l-4 43 -21 -29 -21 -29 -6 24 c-3 13 -11 25
-19 28 -10 3 -11 0 -2 -16z"/>
<path d="M4530 8030 c0 -5 5 -10 11 -10 5 0 7 5 4 10 -3 6 -8 10 -11 10 -2 0
-4 -4 -4 -10z"/>
<path d="M4569 8019 c-21 -21 -23 -60 -3 -66 7 -2 10 6 6 22 -3 16 2 33 13 45
24 26 11 26 -16 -1z"/>
<path d="M4620 8016 c0 -13 -3 -33 -6 -43 -5 -16 -4 -16 10 1 18 22 21 52 6
61 -6 3 -10 -5 -10 -19z"/>
<path d="M4667 8013 c-3 -16 -9 -36 -12 -45 -4 -10 -3 -18 3 -18 10 0 24 37
27 73 3 28 -12 20 -18 -10z"/>
<path d="M4705 8030 c3 -5 8 -10 11 -10 2 0 4 5 4 10 0 6 -5 10 -11 10 -5 0
-7 -4 -4 -10z"/>
<path d="M4843 8024 c-3 -8 -1 -20 6 -27 6 -6 11 -20 11 -31 0 -16 3 -17 12
-8 10 10 9 18 -5 41 -9 15 -14 31 -10 35 3 3 3 6 -1 6 -3 0 -9 -7 -13 -16z"/>
<path d="M4875 8030 c3 -5 8 -10 11 -10 2 0 4 5 4 10 0 6 -5 10 -11 10 -5 0
-7 -4 -4 -10z"/>
<path d="M532 8018 c-21 -27 -18 -68 6 -68 14 0 15 2 2 10 -12 7 -13 15 -3 40
12 33 11 37 -5 18z"/>
<path d="M1011 8012 c-14 -26 -14 -49 -1 -57 5 -3 7 0 4 9 -3 8 0 24 6 36 6
12 9 24 7 27 -3 2 -10 -4 -16 -15z"/>
<path d="M2651 8012 c-14 -26 -14 -49 -1 -57 5 -3 7 0 4 9 -3 8 0 24 6 36 6
12 9 24 7 27 -3 2 -10 -4 -16 -15z"/>
<path d="M4092 8018 c-21 -27 -18 -68 6 -68 14 0 15 2 2 10 -12 7 -13 15 -3
40 12 33 11 37 -5 18z"/>
<path d="M4820 7965 c0 -8 4 -15 10 -15 5 0 7 7 4 15 -4 8 -8 15 -10 15 -2 0
-4 -7 -4 -15z"/>
<path d="M3605 7960 c-3 -5 1 -10 10 -10 9 0 13 5 10 10 -3 6 -8 10 -10 10 -2
0 -7 -4 -10 -10z"/>
<path d="M4905 7960 c3 -5 8 -10 11 -10 2 0 4 5 4 10 0 6 -5 10 -11 10 -5 0
-7 -4 -4 -10z"/>
<path d="M300 7640 c0 -7 1512 -10 4515 -10 3003 0 4515 3 4515 10 0 7 -1512
10 -4515 10 -3003 0 -4515 -3 -4515 -10z"/>
<path d="M5418 7450 c-3 -65 -2 -70 17 -70 18 0 20 5 17 36 -4 34 -3 36 17 31
13 -3 21 0 21 8 0 8 -8 11 -21 8 -19 -5 -21 -3 -17 25 4 26 1 32 -13 32 -15 0
-18 -11 -21 -70z"/>
<path d="M5490 7513 c8 -3 18 -11 22 -17 5 -7 8 -4 8 7 0 11 -7 17 -22 16 -16
0 -18 -2 -8 -6z"/>
<path d="M6325 7450 c0 -58 3 -70 16 -70 12 0 15 7 11 28 -5 24 -4 26 11 13
10 -7 17 -20 17 -27 0 -8 9 -14 20 -14 20 0 20 1 -2 34 -12 19 -28 32 -35 29
-9 -4 -13 7 -13 36 0 26 -5 41 -12 41 -9 0 -13 -21 -13 -70z"/>
<path d="M5545 7430 c0 -38 4 -50 15 -50 12 0 14 11 12 50 -5 67 -27 67 -27 0z"/>
<path d="M5587 7474 c-8 -8 1 -24 14 -24 5 0 9 7 9 15 0 15 -12 20 -23 9z"/>
<path d="M5668 7471 c9 -5 13 -22 10 -47 -2 -30 1 -39 14 -42 14 -3 15 3 11
40 -6 41 -16 58 -38 58 -5 0 -4 -4 3 -9z"/>
<path d="M5735 7430 c0 -38 4 -50 15 -50 20 0 19 94 -1 98 -10 2 -14 -10 -14
-48z"/>
<path d="M5788 7430 c3 -36 8 -50 19 -50 20 0 14 94 -7 98 -12 2 -14 -7 -12
-48z"/>
<path d="M5845 7430 c0 -41 3 -50 18 -50 20 0 24 48 7 81 -17 31 -25 22 -25
-31z"/>
<path d="M5916 7464 c-9 -8 -16 -24 -16 -34 0 -34 49 -66 64 -41 3 5 -2 8 -11
7 -10 0 -19 7 -21 17 -3 13 3 17 22 17 20 0 24 4 19 18 -13 33 -34 40 -57 16z
m38 -9 c4 -10 -1 -15 -14 -15 -13 0 -18 5 -14 15 4 8 10 15 14 15 4 0 10 -7
14 -15z"/>
<path d="M5998 7435 c19 -52 38 -61 27 -12 -4 17 -7 38 -8 45 0 6 -8 12 -18
12 -17 0 -17 -2 -1 -45z"/>
<path d="M6044 7463 c1 -10 9 -31 16 -48 11 -27 13 -28 20 -10 4 11 4 24 -1
30 -5 5 -9 17 -9 27 0 10 -7 18 -15 18 -9 0 -13 -7 -11 -17z"/>
<path d="M6134 7455 c-15 -23 -15 -27 0 -50 18 -28 28 -30 57 -15 39 21 16 90
-30 90 -6 0 -18 -11 -27 -25z m51 -25 c0 -25 -5 -36 -17 -38 -15 -3 -18 4 -18
38 0 34 3 41 18 38 12 -2 17 -13 17 -38z"/>
<path d="M6235 7430 c0 -38 4 -50 15 -50 11 0 15 11 15 37 0 27 5 38 15 39 8
1 19 2 25 3 5 0 4 6 -3 13 -8 8 -15 8 -27 -2 -10 -8 -15 -9 -15 -1 0 6 -6 11
-12 11 -9 0 -13 -17 -13 -50z"/>
<path d="M6380 7470 c0 -5 7 -7 15 -4 8 4 15 8 15 10 0 2 -7 4 -15 4 -8 0 -15
-4 -15 -10z"/>
<path d="M6439 7464 c-12 -14 -10 -19 15 -39 19 -15 26 -27 21 -36 -4 -8 1 -6
11 4 19 18 18 19 -10 42 -16 12 -25 28 -22 34 11 17 0 13 -15 -5z"/>
<path d="M5630 7455 c0 -8 5 -15 10 -15 6 0 10 7 10 15 0 8 -4 15 -10 15 -5 0
-10 -7 -10 -15z"/>
<path d="M5638 7419 c-19 -10 -14 -39 7 -39 7 0 12 11 11 25 0 14 -1 25 -1 25
0 0 -8 -5 -17 -11z"/>
<path d="M6431 7394 c0 -11 3 -14 6 -6 3 7 2 16 -1 19 -3 4 -6 -2 -5 -13z"/>
<path d="M2770 7080 c11 -23 25 -53 31 -67 8 -20 12 -24 22 -14 8 8 8 14 2 19
-6 4 -20 28 -32 55 -13 26 -27 47 -33 47 -6 0 -1 -18 10 -40z"/>
<path d="M2859 7099 c-8 -16 -8 -20 1 -14 9 6 11 -7 8 -49 -2 -45 0 -56 12
-56 12 0 15 14 15 70 0 73 -13 91 -36 49z"/>
<path d="M2920 7111 c0 -4 12 -6 26 -3 l26 5 -4 -67 c-2 -48 0 -66 10 -66 8 0
12 20 12 64 0 59 2 65 23 69 12 2 -4 5 -35 6 -32 0 -58 -3 -58 -8z"/>
<path d="M4210 7055 c0 -57 -2 -64 -17 -58 -15 5 -16 3 -6 -7 10 -10 15 -11
27 -1 19 16 27 131 9 131 -9 0 -13 -20 -13 -65z"/>
<path d="M4275 7050 c0 -49 4 -70 13 -70 7 0 12 14 12 34 0 30 4 35 28 39 l27
4 -27 2 c-23 1 -28 6 -28 27 0 24 3 26 35 22 19 -2 35 0 35 4 0 4 -21 8 -47 8
l-48 0 0 -70z"/>
<path d="M4900 7080 c11 -23 25 -53 31 -67 8 -20 12 -24 22 -14 8 8 8 14 2 19
-6 4 -20 28 -32 55 -13 26 -27 47 -33 47 -6 0 -1 -18 10 -40z"/>
<path d="M4989 7099 c-8 -16 -8 -20 1 -14 9 6 11 -7 8 -49 -2 -45 0 -56 12
-56 12 0 15 14 15 70 0 73 -13 91 -36 49z"/>
<path d="M5065 7050 c0 -43 4 -70 11 -70 6 0 9 13 6 30 -6 40 16 40 43 0 11
-16 26 -30 34 -30 10 0 4 11 -15 31 -26 28 -27 31 -11 40 21 12 22 55 1 63 -9
3 -28 6 -42 6 -27 0 -27 -1 -27 -70z m69 44 c8 -21 -11 -44 -35 -44 -14 0 -19
7 -19 30 0 25 4 30 24 30 13 0 27 -7 30 -16z"/>
<path d="M5200 7050 l0 -70 44 0 c25 0 47 4 50 9 4 5 -12 7 -35 4 l-41 -6 4
67 c2 48 0 66 -9 66 -9 0 -13 -21 -13 -70z"/>
<path d="M5415 7050 c0 -49 4 -70 13 -70 8 0 12 20 12 65 0 59 2 65 20 65 30
0 37 -30 13 -50 l-21 -17 25 -31 c13 -18 29 -32 34 -32 6 0 -1 15 -15 33 -25
32 -25 33 -6 45 11 7 20 16 20 21 0 20 -33 41 -63 41 l-32 0 0 -70z"/>
<path d="M5582 7058 c17 -35 32 -65 34 -66 1 -2 8 6 14 18 8 16 9 20 1 15 -7
-4 -19 13 -33 44 -11 28 -26 51 -34 51 -8 0 -2 -21 18 -62z"/>
<path d="M5668 7110 c-8 -24 5 -130 15 -130 8 0 12 24 12 70 0 47 -4 70 -12
70 -6 0 -13 -4 -15 -10z"/>
<path d="M5720 7111 c0 -4 12 -6 26 -3 l26 5 -4 -67 c-2 -48 0 -66 10 -66 8 0
12 20 12 66 0 65 0 66 25 62 14 -3 25 -1 25 3 0 5 -27 9 -60 9 -33 0 -60 -4
-60 -9z"/>
<path d="M5982 7058 c17 -35 32 -65 34 -66 1 -2 8 6 14 18 8 16 9 20 1 15 -7
-4 -19 13 -33 44 -11 28 -26 51 -34 51 -8 0 -2 -21 18 -62z"/>
<path d="M6068 7110 c-8 -24 5 -130 15 -130 8 0 12 24 12 70 0 47 -4 70 -12
70 -6 0 -13 -4 -15 -10z"/>
<path d="M6120 7111 c0 -4 12 -6 26 -3 l26 5 -4 -67 c-2 -48 0 -66 10 -66 8 0
12 20 12 66 0 65 0 66 25 62 14 -3 25 -1 25 3 0 5 -27 9 -60 9 -33 0 -60 -4
-60 -9z"/>
<path d="M6265 7050 c0 -49 4 -70 13 -70 7 0 12 14 12 37 0 35 0 36 20 18 11
-10 22 -26 25 -36 4 -11 16 -19 28 -19 19 0 17 5 -18 40 l-39 40 29 30 c16 16
26 30 22 30 -4 0 -21 -15 -37 -32 l-29 -33 -1 33 c0 19 -5 32 -12 32 -9 0 -13
-21 -13 -70z"/>
<path d="M6842 7104 c-16 -11 -22 -25 -22 -54 0 -44 27 -71 70 -69 l25 2 -25
4 c-38 7 -50 22 -50 63 0 41 12 56 50 63 l25 4 -25 2 c-14 0 -36 -6 -48 -15z"/>
<path d="M7110 7111 c0 -4 12 -6 26 -3 l26 5 -4 -67 c-2 -48 0 -66 10 -66 8 0
12 20 12 64 0 59 2 65 23 69 12 2 -4 5 -35 6 -32 0 -58 -3 -58 -8z"/>
<path d="M7258 7113 c20 -4 22 -10 22 -69 0 -44 4 -64 13 -64 9 0 11 18 9 66
l-4 67 26 -5 c14 -3 26 -1 26 3 0 5 -26 8 -57 8 -32 -1 -48 -4 -35 -6z"/>
<path d="M7375 7050 l0 -70 48 0 c26 0 47 3 47 8 0 4 -18 6 -40 4 -39 -4 -40
-3 -40 26 0 27 4 31 33 35 l32 4 -32 1 c-28 2 -33 6 -33 26 0 21 5 25 38 29
36 4 36 4 -8 5 l-45 2 0 -70z"/>
<path d="M7507 7107 c28 -44 88 -116 91 -108 4 12 -78 121 -91 121 -4 0 -4 -6
0 -13z"/>
<path d="M7595 7110 c3 -5 8 -10 11 -10 2 0 4 5 4 10 0 6 -5 10 -11 10 -5 0
-7 -4 -4 -10z"/>
<path d="M7788 7113 c6 -2 18 -2 25 0 6 3 1 5 -13 5 -14 0 -19 -2 -12 -5z"/>
<path d="M7835 7111 c-3 -5 -1 -12 5 -16 5 -3 10 1 10 9 0 18 -6 21 -15 7z"/>
<path d="M8000 7080 c11 -23 25 -53 31 -67 8 -20 12 -24 22 -14 8 8 8 14 2 19
-6 4 -20 28 -32 55 -13 26 -27 47 -33 47 -6 0 -1 -18 10 -40z"/>
<path d="M8089 7099 c-8 -16 -8 -20 1 -14 9 6 11 -7 8 -49 -2 -45 0 -56 12
-56 12 0 15 14 15 70 0 73 -13 91 -36 49z"/>
<path d="M8150 7111 c0 -4 12 -6 26 -3 l26 5 -4 -67 c-2 -48 0 -66 10 -66 8 0
12 20 12 64 0 59 2 65 23 69 12 2 -4 5 -35 6 -32 0 -58 -3 -58 -8z"/>
<path d="M8602 7104 c-16 -11 -22 -25 -22 -54 0 -44 27 -71 70 -69 l25 2 -25
4 c-38 7 -50 22 -50 63 0 41 12 56 50 63 l25 4 -25 2 c-14 0 -36 -6 -48 -15z"/>
<path d="M8828 7050 c-2 -42 1 -70 7 -70 6 0 9 24 7 57 l-3 58 26 -55 c20 -41
28 -51 35 -40 5 9 5 17 0 20 -5 3 -19 27 -30 53 -12 26 -25 47 -30 47 -4 0
-10 -32 -12 -70z"/>
<path d="M8937 7100 c-3 -12 -1 -18 5 -14 6 4 9 -14 6 -50 -2 -40 1 -56 10
-56 8 0 12 21 12 70 0 53 -3 70 -14 70 -7 0 -16 -9 -19 -20z"/>
<path d="M9018 7113 c20 -4 22 -10 22 -69 0 -44 4 -64 13 -64 9 0 11 18 9 66
l-4 67 26 -5 c14 -3 26 -1 26 3 0 5 -26 8 -57 8 -32 -1 -48 -4 -35 -6z"/>
<path d="M2645 7100 c-4 -7 -3 -15 2 -19 6 -3 13 -16 17 -28 6 -20 4 -23 -18
-23 -14 0 -27 -4 -30 -8 -2 -4 10 -6 29 -4 27 3 34 0 40 -17 3 -12 12 -21 19
-21 9 0 3 20 -17 63 -35 74 -33 71 -42 57z"/>
<path d="M3195 7100 c-4 -7 -3 -15 2 -19 6 -3 13 -16 17 -28 6 -20 4 -23 -18
-23 -14 0 -27 -4 -30 -8 -2 -4 10 -6 29 -4 27 3 34 0 40 -17 3 -12 12 -21 19
-21 9 0 3 20 -17 63 -35 74 -33 71 -42 57z"/>
<path d="M3805 7050 c0 -33 3 -60 8 -60 4 0 7 27 7 60 0 33 -3 60 -8 60 -4 0
-7 -27 -7 -60z"/>
<path d="M4767 7097 c-6 -16 26 -57 44 -57 14 0 19 -33 8 -46 -9 -12 -9 -13 4
-8 30 11 28 36 -6 68 -19 17 -36 38 -39 46 -3 11 -6 10 -11 -3z"/>
<path d="M4825 7100 c3 -5 8 -10 11 -10 2 0 4 5 4 10 0 6 -5 10 -11 10 -5 0
-7 -4 -4 -10z"/>
<path d="M6982 7098 c-16 -16 -15 -83 1 -96 9 -8 12 3 12 49 0 32 0 59 0 59
-1 0 -6 -5 -13 -12z"/>
<path d="M7071 7083 c8 -24 8 -42 0 -65 l-11 -33 20 24 c11 13 20 31 20 41 0
10 -9 28 -20 41 l-20 24 11 -32z"/>
<path d="M7740 7091 c-18 -35 -5 -101 19 -101 5 0 4 14 -2 30 -8 22 -8 38 0
60 12 33 0 41 -17 11z"/>
<path d="M3538 7094 c-11 -10 -10 -86 2 -104 5 -8 10 -12 12 -10 7 11 -7 121
-14 114z"/>
<path d="M8438 7094 c-11 -10 -10 -86 2 -104 5 -8 10 -12 12 -10 7 11 -7 121
-14 114z"/>
<path d="M9282 7041 c2 -38 8 -56 18 -59 13 -4 13 -3 2 11 -8 9 -12 32 -11 51
2 19 0 38 -4 43 -5 4 -7 -17 -5 -46z"/>
<path d="M3349 7067 c8 -10 12 -31 9 -52 -2 -19 0 -35 5 -35 15 0 3 93 -13 98
-13 5 -13 3 -1 -11z"/>
<path d="M3400 7073 c5 -2 10 -25 10 -49 0 -24 4 -44 8 -44 13 0 -2 93 -16 96
-7 1 -8 0 -2 -3z"/>
<path d="M3628 7067 c7 -8 9 -17 5 -20 -3 -4 -1 -7 5 -7 18 0 14 27 -4 34 -13
5 -14 4 -6 -7z"/>
<path d="M3715 7070 c3 -5 8 -10 11 -10 2 0 4 5 4 10 0 6 -5 10 -11 10 -5 0
-7 -4 -4 -10z"/>
<path d="M3988 7073 c7 -3 12 -23 12 -49 0 -24 5 -44 10 -44 6 0 10 17 10 38
0 38 -14 63 -34 61 -6 0 -5 -3 2 -6z"/>
<path d="M4049 7067 c8 -10 12 -31 9 -52 -2 -19 0 -35 5 -35 15 0 3 93 -13 98
-13 5 -13 3 -1 -11z"/>
<path d="M4390 7033 c3 -29 11 -48 20 -51 12 -4 13 -2 3 9 -7 7 -13 30 -13 51
0 21 -4 38 -8 38 -4 0 -5 -21 -2 -47z"/>
<path d="M4443 7035 c0 -27 2 -38 4 -22 2 15 2 37 0 50 -2 12 -4 0 -4 -28z"/>
<path d="M4509 7030 c-22 -41 -24 -50 -11 -50 8 0 13 3 9 6 -3 3 5 24 19 45
26 41 28 49 17 49 -5 0 -20 -23 -34 -50z"/>
<path d="M4599 7030 c-22 -41 -24 -50 -11 -50 8 0 13 3 9 6 -3 3 5 24 19 45
26 41 28 49 17 49 -5 0 -20 -23 -34 -50z"/>
<path d="M6438 7067 c7 -8 9 -17 5 -20 -3 -4 -1 -7 5 -7 18 0 14 27 -4 34 -13
5 -14 4 -6 -7z"/>
<path d="M6499 7078 c-5 -20 -2 -98 4 -98 4 0 7 23 7 50 0 28 -2 50 -5 50 -3
0 -5 -1 -6 -2z"/>
<path d="M7919 7071 c7 -5 10 -14 7 -20 -4 -6 0 -11 8 -11 9 0 16 4 16 8 0 12
-22 32 -34 32 -6 0 -5 -4 3 -9z"/>
<path d="M8307 7061 c3 -12 9 -21 14 -21 14 0 11 16 -5 29 -12 10 -13 8 -9 -8z"/>
<path d="M8768 7067 c7 -8 9 -17 5 -20 -3 -4 -1 -7 5 -7 18 0 14 27 -4 34 -13
5 -14 4 -6 -7z"/>
<path d="M9149 7071 c7 -5 10 -14 7 -20 -4 -6 0 -11 8 -11 9 0 16 4 16 8 0 12
-22 32 -34 32 -6 0 -5 -4 3 -9z"/>
<path d="M3300 7025 c0 -25 3 -45 8 -45 4 0 7 20 7 45 0 25 -3 45 -7 45 -5 0
-8 -20 -8 -45z"/>
<path d="M3680 7025 c0 -25 5 -45 10 -45 6 0 10 20 10 45 0 25 -4 45 -10 45
-5 0 -10 -20 -10 -45z"/>
<path d="M3890 7031 c0 -22 5 -43 10 -46 6 -4 10 10 10 34 0 22 -4 43 -10 46
-6 4 -10 -10 -10 -34z"/>
<path d="M3945 7025 c0 -25 3 -45 8 -45 4 0 7 20 7 45 0 25 -3 45 -7 45 -5 0
-8 -20 -8 -45z"/>
<path d="M6600 7031 c0 -22 5 -43 10 -46 6 -4 10 10 10 34 0 22 -4 43 -10 46
-6 4 -10 -10 -10 -34z"/>
<path d="M6650 7056 c0 -15 50 -60 57 -52 3 3 -8 19 -26 35 -17 16 -31 24 -31
17z"/>
<path d="M9200 7056 c0 -15 50 -60 57 -52 3 3 -8 19 -26 35 -17 16 -31 24 -31
17z"/>
<path d="M3450 7053 c0 -5 14 -20 30 -35 19 -16 30 -21 30 -13 0 8 -13 23 -30
35 -16 12 -30 18 -30 13z"/>
<path d="M3748 7054 c-22 -22 0 -74 31 -74 12 0 12 2 -1 13 -9 6 -18 25 -20
40 -2 16 -6 25 -10 21z"/>
<path d="M7878 7048 c-16 -40 28 -87 56 -58 8 8 7 10 -4 6 -23 -9 -38 6 -42
39 -2 22 -5 26 -10 13z"/>
<path d="M8261 7035 c-1 -33 14 -55 38 -55 11 0 9 4 -6 15 -12 8 -24 28 -26
43 -4 27 -4 27 -6 -3z"/>
<path d="M8350 7053 c0 -5 14 -20 30 -35 19 -16 30 -21 30 -13 0 8 -13 23 -30
35 -16 12 -30 18 -30 13z"/>
<path d="M9108 7048 c-16 -40 28 -87 56 -58 8 8 7 10 -4 6 -23 -9 -38 6 -42
39 -2 22 -5 26 -10 13z"/>
<path d="M3580 7027 c0 -25 17 -47 37 -47 8 0 5 8 -8 21 -11 11 -18 27 -15 35
3 8 1 14 -4 14 -6 0 -10 -10 -10 -23z"/>
<path d="M6390 7027 c0 -25 17 -47 37 -47 8 0 5 8 -8 21 -11 11 -18 27 -15 35
3 8 1 14 -4 14 -6 0 -10 -10 -10 -23z"/>
<path d="M6920 7020 c0 -16 5 -30 10 -30 6 0 10 14 10 30 0 17 -4 30 -10 30
-5 0 -10 -13 -10 -30z"/>
<path d="M7830 7020 c0 -16 5 -30 10 -30 6 0 10 14 10 30 0 17 -4 30 -10 30
-5 0 -10 -13 -10 -30z"/>
<path d="M8680 7020 c0 -16 5 -30 10 -30 6 0 10 14 10 30 0 17 -4 30 -10 30
-5 0 -10 -13 -10 -30z"/>
<path d="M8720 7027 c0 -25 17 -47 37 -47 8 0 5 8 -8 21 -11 11 -18 27 -15 35
3 8 1 14 -4 14 -6 0 -10 -10 -10 -23z"/>
<path d="M3846 7011 c-5 -7 -3 -18 3 -24 14 -14 20 -6 11 17 -5 15 -9 16 -14
7z"/>
<path d="M6556 7011 c-5 -7 -3 -18 3 -24 14 -14 20 -6 11 17 -5 15 -9 16 -14
7z"/>
<path d="M4760 7000 c0 -5 5 -10 11 -10 5 0 7 5 4 10 -3 6 -8 10 -11 10 -2 0
-4 -4 -4 -10z"/>
<path d="M2595 6990 c-3 -5 -1 -10 4 -10 6 0 11 5 11 10 0 6 -2 10 -4 10 -3 0
-8 -4 -11 -10z"/>
<path d="M2750 6990 c0 -5 5 -10 11 -10 5 0 7 5 4 10 -3 6 -8 10 -11 10 -2 0
-4 -4 -4 -10z"/>
<path d="M3145 6990 c-3 -5 -1 -10 4 -10 6 0 11 5 11 10 0 6 -2 10 -4 10 -3 0
-8 -4 -11 -10z"/>
<path d="M4880 6990 c0 -5 5 -10 11 -10 5 0 7 5 4 10 -3 6 -8 10 -11 10 -2 0
-4 -4 -4 -10z"/>
<path d="M7500 6990 c0 -5 5 -10 11 -10 5 0 7 5 4 10 -3 6 -8 10 -11 10 -2 0
-4 -4 -4 -10z"/>
<path d="M7980 6990 c0 -5 5 -10 11 -10 5 0 7 5 4 10 -3 6 -8 10 -11 10 -2 0
-4 -4 -4 -10z"/>
<path d="M7788 6983 c6 -2 18 -2 25 0 6 3 1 5 -13 5 -14 0 -19 -2 -12 -5z"/>
<path d="M8075 6840 c-3 -5 0 -7 8 -4 25 9 42 -23 28 -54 -10 -25 -10 -26 4
-8 8 11 15 27 15 36 0 31 -41 53 -55 30z"/>
<path d="M8249 6848 c-4 -25 -2 -138 4 -138 4 0 7 32 7 70 0 39 -2 70 -5 70
-3 0 -5 -1 -6 -2z"/>
<path d="M8941 6838 c9 -7 19 -20 23 -28 3 -8 4 -4 3 10 -1 16 -9 26 -22 28
-18 3 -18 3 -4 -10z"/>
<path d="M7910 6821 c-14 -26 -13 -63 3 -84 10 -15 12 -8 12 43 0 33 -1 60 -2
60 -1 0 -7 -9 -13 -19z"/>
<path d="M7965 6780 c0 -51 2 -58 13 -43 6 9 12 29 12 43 0 14 -6 34 -12 43
-11 15 -13 8 -13 -43z"/>
<path d="M8756 6824 c-8 -22 -7 -77 2 -91 4 -6 8 15 8 48 1 63 0 68 -10 43z"/>
<path d="M8815 6780 c0 -38 3 -56 10 -49 5 5 10 27 10 49 0 22 -5 44 -10 49
-7 7 -10 -11 -10 -49z"/>
<path d="M9090 6775 c0 -37 4 -65 10 -65 6 0 10 28 10 65 0 37 -4 65 -10 65
-6 0 -10 -28 -10 -65z"/>
<path d="M8957 6766 c21 -28 28 -26 18 3 -3 12 -13 21 -21 21 -12 0 -12 -4 3
-24z"/>
<path d="M8010 6719 c0 -5 5 -7 10 -4 6 3 10 8 10 11 0 2 -4 4 -10 4 -5 0 -10
-5 -10 -11z"/>
<path d="M8063 6718 c-2 -5 12 -8 31 -8 19 0 37 3 39 8 3 4 -11 7 -30 7 -19 0
-37 -3 -40 -7z"/>
<path d="M9015 6720 c3 -5 8 -10 11 -10 2 0 4 5 4 10 0 6 -5 10 -11 10 -5 0
-7 -4 -4 -10z"/>
<path d="M2558 6583 c1245 -2 3279 -2 4520 0 1241 1 223 2 -2263 2 -2486 0
-3502 -1 -2257 -2z"/>
<path d="M3630 6429 c-22 -28 -45 -58 -50 -67 -9 -16 -11 -15 -25 2 -8 11 -17
17 -21 14 -6 -7 24 -58 35 -58 3 0 16 18 29 41 13 22 39 58 59 80 19 21 30 39
24 39 -6 0 -29 -23 -51 -51z"/>
<path d="M4449 6443 c-18 -21 -41 -52 -52 -70 l-19 -33 -19 23 c-22 27 -25 10
-3 -21 21 -30 27 -28 47 13 9 19 35 55 58 80 23 25 37 45 31 45 -5 0 -25 -17
-43 -37z"/>
<path d="M7247 6438 c-19 -24 -42 -56 -53 -72 -18 -28 -18 -28 -28 -7 -8 19
-26 30 -26 16 0 -10 32 -55 39 -55 4 0 14 15 23 33 9 17 35 53 58 80 23 26 37
47 32 47 -6 0 -26 -19 -45 -42z"/>
<path d="M8133 6447 c-16 -18 -39 -50 -52 -70 l-23 -37 -19 22 c-23 28 -25 16
-3 -17 21 -33 27 -31 46 8 9 17 35 53 58 80 23 26 37 47 32 47 -6 0 -23 -15
-39 -33z"/>
<path d="M8978 6442 c-19 -21 -43 -53 -54 -70 l-19 -32 -17 22 c-10 13 -18 18
-18 12 0 -7 8 -22 18 -34 l19 -23 23 39 c13 21 39 56 58 76 20 21 33 40 30 43
-3 3 -21 -12 -40 -33z"/>
<path d="M320 6390 l0 -70 35 0 c41 0 85 36 85 70 0 34 -44 70 -85 70 l-35 0
0 -70z m82 43 c38 -34 13 -103 -38 -103 -23 0 -24 3 -24 60 0 55 2 60 22 60
12 0 30 -7 40 -17z"/>
<path d="M825 6450 c-3 -5 -1 -10 4 -10 6 0 11 5 11 10 0 6 -2 10 -4 10 -3 0
-8 -4 -11 -10z"/>
<path d="M1035 6390 c0 -49 4 -70 13 -70 8 0 12 21 12 70 0 49 -4 70 -12 70
-9 0 -13 -21 -13 -70z"/>
<path d="M1255 6390 c0 -33 3 -60 8 -60 4 0 7 27 7 60 0 33 -3 60 -8 60 -4 0
-7 -27 -7 -60z"/>
<path d="M1748 6390 c-1 -33 0 -60 5 -60 4 0 7 27 7 60 0 77 -7 77 -12 0z"/>
<path d="M619 6407 c8 -10 12 -31 9 -52 -2 -19 0 -35 5 -35 15 0 3 93 -13 98
-13 5 -13 3 -1 -11z"/>
<path d="M670 6413 c5 -2 10 -25 10 -49 0 -24 4 -44 8 -44 13 0 -2 93 -16 96
-7 1 -8 0 -2 -3z"/>
<path d="M829 6418 c-5 -20 -2 -98 4 -98 4 0 7 23 7 50 0 28 -2 50 -5 50 -3 0
-5 -1 -6 -2z"/>
<path d="M918 6413 c7 -3 12 -23 12 -49 0 -24 5 -44 10 -44 13 0 13 56 0 81
-6 10 -16 19 -23 18 -9 0 -9 -2 1 -6z"/>
<path d="M1149 6407 c8 -10 12 -31 9 -52 -2 -19 0 -35 5 -35 15 0 3 93 -13 98
-13 5 -13 3 -1 -11z"/>
<path d="M1339 6411 c7 -5 10 -14 7 -20 -4 -6 0 -11 8 -11 9 0 16 4 16 8 0 12
-22 32 -34 32 -6 0 -5 -4 3 -9z"/>
<path d="M1444 6407 c14 -10 17 -22 14 -46 -3 -20 -1 -28 5 -22 14 14 11 62
-4 72 -22 14 -35 10 -15 -4z"/>
<path d="M1537 6401 c3 -12 9 -21 14 -21 14 0 11 16 -5 29 -12 10 -13 8 -9 -8z"/>
<path d="M1639 6407 c8 -10 12 -31 9 -52 -2 -19 0 -35 5 -35 15 0 3 93 -13 98
-13 5 -13 3 -1 -11z"/>
<path d="M1829 6411 c7 -5 10 -14 7 -20 -4 -6 0 -11 8 -11 9 0 16 4 16 8 0 12
-22 32 -34 32 -6 0 -5 -4 3 -9z"/>
<path d="M1928 6413 c7 -3 12 -23 12 -49 0 -24 5 -44 10 -44 13 0 13 56 0 81
-6 10 -16 19 -23 18 -9 0 -9 -2 1 -6z"/>
<path d="M2036 6407 c3 -10 9 -15 12 -12 3 3 0 11 -7 18 -10 9 -11 8 -5 -6z"/>
<path d="M2118 6407 c7 -8 9 -17 5 -20 -3 -4 -1 -7 5 -7 18 0 14 27 -4 34 -13
5 -14 4 -6 -7z"/>
<path d="M464 6386 c-3 -14 -1 -32 4 -42 7 -13 9 -7 8 24 -1 48 -3 52 -12 18z"/>
<path d="M525 6371 c0 -40 9 -46 18 -12 3 11 0 27 -7 36 -9 12 -11 8 -11 -24z"/>
<path d="M570 6365 c0 -25 3 -45 8 -45 4 0 7 20 7 45 0 25 -3 45 -7 45 -5 0
-8 -20 -8 -45z"/>
<path d="M725 6400 c-3 -5 -1 -10 4 -10 6 0 11 5 11 10 0 6 -2 10 -4 10 -3 0
-8 -4 -11 -10z"/>
<path d="M770 6367 c0 -26 4 -47 9 -47 8 0 3 79 -5 89 -2 2 -4 -17 -4 -42z"/>
<path d="M875 6365 c0 -25 5 -45 10 -45 6 0 10 20 10 45 0 25 -4 45 -10 45 -5
0 -10 -20 -10 -45z"/>
<path d="M1100 6365 c0 -25 5 -45 10 -45 6 0 10 20 10 45 0 25 -4 45 -10 45
-5 0 -10 -20 -10 -45z"/>
<path d="M1399 6343 c5 -69 8 -65 13 20 2 27 -1 47 -7 47 -6 0 -8 -26 -6 -67z"/>
<path d="M1590 6365 c0 -25 5 -45 10 -45 6 0 10 20 10 45 0 25 -4 45 -10 45
-5 0 -10 -20 -10 -45z"/>
<path d="M1691 6388 c-9 -25 -4 -49 13 -60 20 -14 30 -8 12 5 -14 10 -17 23
-14 45 5 37 1 41 -11 10z"/>
<path d="M1885 6365 c0 -25 5 -45 10 -45 6 0 10 20 10 45 0 25 -4 45 -10 45
-5 0 -10 -20 -10 -45z"/>
<path d="M1198 6394 c-22 -22 0 -74 31 -74 12 0 12 2 -1 13 -9 6 -18 25 -20
40 -2 16 -6 25 -10 21z"/>
<path d="M1298 6388 c-16 -40 28 -87 56 -58 8 8 7 10 -4 6 -23 -9 -38 6 -42
39 -2 22 -5 26 -10 13z"/>
<path d="M1491 6375 c-1 -33 14 -55 38 -55 11 0 9 4 -6 15 -12 8 -24 28 -26
43 -4 27 -4 27 -6 -3z"/>
<path d="M1788 6388 c-16 -40 28 -87 56 -58 8 8 7 10 -4 6 -23 -9 -38 6 -42
39 -2 22 -5 26 -10 13z"/>
<path d="M1981 6377 c-1 -28 18 -57 37 -57 16 1 16 1 0 14 -10 7 -22 24 -27
37 -7 18 -10 20 -10 6z"/>
<path d="M2070 6367 c0 -25 17 -47 37 -47 8 0 5 8 -8 21 -11 11 -18 27 -15 35
3 8 1 14 -4 14 -6 0 -10 -10 -10 -23z"/>
<path d="M724 6355 c-7 -17 3 -35 18 -35 7 0 6 5 -2 15 -6 8 -9 19 -5 25 3 5
4 10 0 10 -3 0 -8 -7 -11 -15z"/>
<path d="M2798 6363 c6 -2 18 -2 25 0 6 3 1 5 -13 5 -14 0 -19 -2 -12 -5z"/>
<path d="M5013 6363 c9 -2 23 -2 30 0 6 3 -1 5 -18 5 -16 0 -22 -2 -12 -5z"/>
<path d="M5603 6363 c9 -2 23 -2 30 0 6 3 -1 5 -18 5 -16 0 -22 -2 -12 -5z"/>
<path d="M6313 6363 c9 -2 23 -2 30 0 6 3 -1 5 -18 5 -16 0 -22 -2 -12 -5z"/>
<path d="M3641 5885 c-23 -25 -47 -56 -53 -70 -14 -30 -19 -31 -36 -4 -7 12
-16 19 -18 16 -7 -6 25 -57 36 -57 4 0 12 11 18 24 5 12 31 48 56 80 56 67 54
73 -3 11z"/>
<path d="M4447 5888 c-19 -24 -42 -56 -52 -71 l-19 -29 -18 24 c-22 28 -24 11
-2 -20 20 -29 27 -28 46 11 9 17 35 53 58 80 23 26 37 47 32 47 -6 0 -26 -19
-45 -42z"/>
<path d="M5063 5897 c-16 -18 -40 -50 -53 -71 l-23 -38 -18 23 c-23 29 -25 12
-3 -19 21 -30 27 -28 47 13 9 19 33 52 53 75 20 22 35 43 32 46 -3 2 -19 -10
-35 -29z"/>
<path d="M5651 5885 c-23 -25 -47 -56 -53 -70 -14 -30 -19 -31 -36 -4 -7 12
-16 19 -18 16 -7 -6 25 -57 35 -57 4 0 15 15 25 33 10 17 36 53 58 80 50 60
43 61 -11 2z"/>
<path d="M6360 5893 c-18 -21 -42 -53 -54 -72 -20 -34 -20 -34 -34 -13 -22 33
-36 26 -15 -8 9 -16 21 -30 25 -30 4 0 20 19 34 43 15 23 40 57 57 74 17 18
28 35 25 38 -3 3 -20 -11 -38 -32z"/>
<path d="M7259 5898 c-17 -18 -42 -50 -55 -71 l-25 -38 -19 23 c-23 28 -27 12
-4 -20 19 -28 28 -28 42 2 5 12 31 48 56 80 50 61 53 75 5 24z"/>
<path d="M8128 5888 c-18 -24 -42 -56 -51 -71 l-18 -28 -19 23 c-23 28 -27 12
-4 -20 19 -28 28 -28 42 2 5 12 31 48 56 80 26 31 42 56 37 56 -5 0 -24 -19
-43 -42z"/>
<path d="M8980 5893 c-18 -21 -42 -53 -54 -72 -20 -34 -20 -34 -34 -13 -22 33
-36 26 -15 -8 9 -16 21 -30 25 -30 4 0 20 19 34 43 15 23 40 57 57 74 17 18
28 35 25 38 -3 3 -20 -11 -38 -32z"/>
<path d="M1035 5900 c-3 -5 -1 -10 4 -10 6 0 11 5 11 10 0 6 -2 10 -4 10 -3 0
-8 -4 -11 -10z"/>
<path d="M365 5890 c-4 -7 -3 -15 2 -19 6 -3 13 -16 17 -28 6 -20 4 -23 -18
-23 -14 0 -27 -4 -30 -8 -2 -4 10 -6 29 -4 27 3 34 0 40 -17 3 -12 12 -21 19
-21 9 0 3 20 -17 63 -35 74 -33 71 -42 57z"/>
<path d="M978 5884 c-11 -10 -10 -86 2 -104 5 -8 10 -12 12 -10 7 11 -7 121
-14 114z"/>
<path d="M562 5831 c2 -38 8 -56 18 -59 13 -4 13 -3 2 11 -8 9 -12 32 -11 51
2 19 0 38 -4 43 -5 4 -7 -17 -5 -46z"/>
<path d="M464 5826 c1 -34 6 -51 16 -54 12 -4 13 -2 3 9 -6 8 -13 32 -16 54
-4 34 -4 32 -3 -9z"/>
<path d="M510 5825 c0 -25 5 -45 10 -45 6 0 10 20 10 45 0 25 -4 45 -10 45 -5
0 -10 -20 -10 -45z"/>
<path d="M769 5857 c8 -10 12 -31 9 -52 -2 -21 0 -35 7 -35 17 0 3 92 -15 98
-13 5 -13 3 -1 -11z"/>
<path d="M818 5863 c7 -3 12 -23 12 -49 0 -24 5 -44 10 -44 6 0 10 17 10 38 0
38 -14 63 -34 61 -6 0 -5 -3 2 -6z"/>
<path d="M1039 5868 c-5 -20 -2 -98 4 -98 4 0 7 23 7 50 0 28 -2 50 -5 50 -3
0 -5 -1 -6 -2z"/>
<path d="M1239 5857 c8 -10 12 -31 9 -52 -2 -19 0 -35 5 -35 15 0 3 93 -13 98
-13 5 -13 3 -1 -11z"/>
<path d="M678 5824 c3 -24 8 -32 14 -26 11 11 3 62 -10 62 -4 0 -6 -16 -4 -36z"/>
<path d="M720 5815 c0 -25 5 -45 10 -45 6 0 10 20 10 45 0 25 -4 45 -10 45 -5
0 -10 -20 -10 -45z"/>
<path d="M920 5821 c0 -22 5 -43 10 -46 6 -4 10 10 10 34 0 22 -4 43 -10 46
-6 4 -10 -10 -10 -34z"/>
<path d="M1084 5836 c-3 -14 -1 -32 4 -42 7 -13 9 -7 8 24 -1 48 -3 52 -12 18z"/>
<path d="M1145 5821 c0 -40 9 -46 18 -12 3 11 0 27 -7 36 -9 12 -11 8 -11 -24z"/>
<path d="M1190 5815 c0 -25 5 -45 10 -45 6 0 10 20 10 45 0 25 -4 45 -10 45
-5 0 -10 -20 -10 -45z"/>
<path d="M617 5843 c-11 -11 -8 -40 6 -51 10 -9 12 -4 9 23 -4 37 -5 39 -15
28z"/>
<path d="M2798 5813 c6 -2 18 -2 25 0 6 3 1 5 -13 5 -14 0 -19 -2 -12 -5z"/>
<path d="M876 5801 c-5 -7 -3 -18 3 -24 14 -14 20 -6 11 17 -5 15 -9 16 -14 7z"/>
<path d="M315 5780 c-3 -5 -1 -10 4 -10 6 0 11 5 11 10 0 6 -2 10 -4 10 -3 0
-8 -4 -11 -10z"/>
<path d="M4449 5333 c-20 -21 -44 -51 -53 -67 l-19 -29 -18 24 c-12 16 -19 19
-18 9 0 -8 6 -23 13 -32 14 -19 36 -24 36 -9 0 6 22 39 50 75 27 37 48 66 47
66 -2 0 -19 -17 -38 -37z"/>
<path d="M8952 5305 c-47 -66 -47 -66 -64 -44 -21 25 -24 3 -4 -23 18 -24 33
-23 41 3 4 11 27 45 51 75 24 30 40 54 34 54 -6 0 -32 -29 -58 -65z"/>
<path d="M368 5343 c6 -2 18 -2 25 0 6 3 1 5 -13 5 -14 0 -19 -2 -12 -5z"/>
<path d="M415 5341 c-3 -5 -1 -12 5 -16 5 -3 10 1 10 9 0 18 -6 21 -15 7z"/>
<path d="M1052 5288 c17 -35 32 -65 34 -66 1 -2 8 6 14 18 8 16 9 20 1 15 -7
-4 -19 13 -33 44 -11 28 -26 51 -34 51 -8 0 -2 -21 18 -62z"/>
<path d="M1138 5340 c-8 -24 5 -130 15 -130 8 0 12 24 12 70 0 47 -4 70 -12
70 -6 0 -13 -4 -15 -10z"/>
<path d="M1205 5280 c0 -43 4 -70 11 -70 6 0 9 13 6 30 -6 40 16 40 43 0 11
-16 26 -30 34 -30 10 0 4 11 -15 31 -26 28 -27 31 -11 40 21 12 22 55 1 63 -9
3 -28 6 -42 6 -27 0 -27 -1 -27 -70z m69 44 c8 -21 -11 -44 -35 -44 -14 0 -19
7 -19 30 0 25 4 30 24 30 13 0 27 -7 30 -16z"/>
<path d="M1402 5338 c-19 -19 -14 -31 25 -65 37 -32 37 -33 19 -48 -11 -8 -15
-15 -10 -15 16 0 34 22 34 41 0 10 -13 27 -30 39 -34 24 -39 46 -12 53 13 4
13 5 2 6 -9 0 -21 -4 -28 -11z"/>
<path d="M1795 5340 c-3 -5 -1 -10 4 -10 6 0 11 5 11 10 0 6 -2 10 -4 10 -3 0
-8 -4 -11 -10z"/>
<path d="M2205 5340 c-3 -5 -1 -10 4 -10 6 0 11 5 11 10 0 6 -2 10 -4 10 -3 0
-8 -4 -11 -10z"/>
<path d="M320 5321 c-18 -35 -5 -101 19 -101 5 0 4 14 -2 30 -8 22 -8 38 0 60
12 33 0 41 -17 11z"/>
<path d="M915 5275 c0 -36 3 -65 8 -65 4 0 7 29 7 65 0 36 -3 65 -7 65 -5 0
-8 -29 -8 -65z"/>
<path d="M1856 5324 c-10 -26 -7 -114 4 -114 6 0 10 28 10 65 0 66 -3 77 -14
49z"/>
<path d="M2148 5324 c-11 -10 -10 -86 2 -104 5 -8 10 -12 12 -10 7 11 -7 121
-14 114z"/>
<path d="M507 5291 c3 -12 9 -21 14 -21 14 0 11 16 -5 29 -12 10 -13 8 -9 -8z"/>
<path d="M598 5303 c7 -3 12 -23 12 -49 0 -24 5 -44 10 -44 13 0 13 56 0 81
-6 10 -16 19 -23 18 -9 0 -9 -2 1 -6z"/>
<path d="M698 5297 c7 -8 9 -17 5 -20 -3 -4 -1 -7 5 -7 18 0 14 27 -4 34 -13
5 -14 4 -6 -7z"/>
<path d="M785 5300 c3 -5 8 -10 11 -10 2 0 4 5 4 10 0 6 -5 10 -11 10 -5 0 -7
-4 -4 -10z"/>
<path d="M1555 5290 c12 -13 15 -27 11 -45 -4 -17 -3 -24 4 -20 14 9 13 58 -2
73 -20 20 -32 13 -13 -8z"/>
<path d="M1647 5291 c3 -12 9 -21 14 -21 14 0 11 16 -5 29 -12 10 -13 8 -9 -8z"/>
<path d="M1730 5306 c0 -2 7 -9 15 -16 9 -7 15 -8 15 -2 0 5 -7 12 -15 16 -8
3 -15 4 -15 2z"/>
<path d="M1799 5308 c-5 -20 -2 -98 4 -98 4 0 7 23 7 50 0 28 -2 50 -5 50 -3
0 -5 -1 -6 -2z"/>
<path d="M1905 5260 c0 -27 5 -50 10 -50 6 0 9 21 7 50 -5 65 -17 65 -17 0z"/>
<path d="M2006 5297 c3 -10 9 -15 12 -12 3 3 0 11 -7 18 -10 9 -11 8 -5 -6z"/>
<path d="M2209 5308 c-5 -20 -2 -98 4 -98 4 0 7 23 7 50 0 28 -2 50 -5 50 -3
0 -5 -1 -6 -2z"/>
<path d="M2409 5297 c8 -10 12 -31 9 -52 -2 -19 0 -35 5 -35 15 0 3 93 -13 98
-13 5 -13 3 -1 -11z"/>
<path d="M555 5255 c0 -25 5 -45 10 -45 6 0 10 20 10 45 0 25 -4 45 -10 45 -5
0 -10 -20 -10 -45z"/>
<path d="M750 5255 c0 -25 5 -45 10 -45 6 0 10 20 10 45 0 25 -4 45 -10 45 -5
0 -10 -20 -10 -45z"/>
<path d="M860 5261 c0 -22 5 -43 10 -46 6 -4 10 10 10 34 0 22 -4 43 -10 46
-6 4 -10 -10 -10 -34z"/>
<path d="M1500 5235 c0 -37 4 -65 10 -65 6 0 10 28 10 65 0 37 -4 65 -10 65
-6 0 -10 -28 -10 -65z"/>
<path d="M1694 5286 c-16 -42 22 -94 48 -68 11 11 10 12 -3 7 -22 -8 -42 20
-37 50 6 27 1 34 -8 11z"/>
<path d="M2090 5261 c0 -22 5 -43 10 -46 6 -4 10 10 10 34 0 22 -4 43 -10 46
-6 4 -10 -10 -10 -34z"/>
<path d="M2254 5276 c-3 -14 -1 -32 4 -42 7 -13 9 -7 8 24 -1 48 -3 52 -12 18z"/>
<path d="M2315 5261 c0 -40 9 -46 18 -12 3 11 0 27 -7 36 -9 12 -11 8 -11 -24z"/>
<path d="M2360 5255 c0 -25 5 -45 10 -45 6 0 10 20 10 45 0 25 -4 45 -10 45
-5 0 -10 -20 -10 -45z"/>
<path d="M461 5265 c-1 -33 14 -55 38 -55 11 0 9 4 -6 15 -12 8 -24 28 -26 43
-4 27 -4 27 -6 -3z"/>
<path d="M1601 5265 c-1 -33 14 -55 38 -55 11 0 9 4 -6 15 -12 8 -24 28 -26
43 -4 27 -4 27 -6 -3z"/>
<path d="M410 5250 c0 -16 5 -30 10 -30 6 0 10 14 10 30 0 17 -4 30 -10 30 -5
0 -10 -13 -10 -30z"/>
<path d="M650 5257 c0 -25 17 -47 37 -47 8 0 5 8 -8 21 -11 11 -18 27 -15 35
3 8 1 14 -4 14 -6 0 -10 -10 -10 -23z"/>
<path d="M1951 5267 c-1 -28 18 -57 37 -57 16 1 16 1 0 14 -10 7 -22 24 -27
37 -7 18 -10 20 -10 6z"/>
<path d="M2798 5253 c6 -2 18 -2 25 0 6 3 1 5 -13 5 -14 0 -19 -2 -12 -5z"/>
<path d="M3593 5253 c9 -2 23 -2 30 0 6 3 -1 5 -18 5 -16 0 -22 -2 -12 -5z"/>
<path d="M5013 5253 c9 -2 23 -2 30 0 6 3 -1 5 -18 5 -16 0 -22 -2 -12 -5z"/>
<path d="M5603 5253 c9 -2 23 -2 30 0 6 3 -1 5 -18 5 -16 0 -22 -2 -12 -5z"/>
<path d="M6313 5253 c9 -2 23 -2 30 0 6 3 -1 5 -18 5 -16 0 -22 -2 -12 -5z"/>
<path d="M7203 5253 c9 -2 23 -2 30 0 6 3 -1 5 -18 5 -16 0 -22 -2 -12 -5z"/>
<path d="M8083 5253 c9 -2 23 -2 30 0 6 3 -1 5 -18 5 -16 0 -22 -2 -12 -5z"/>
<path d="M816 5241 c-5 -7 -3 -18 3 -24 14 -14 20 -6 11 17 -5 15 -9 16 -14 7z"/>
<path d="M2046 5241 c-5 -7 -3 -18 3 -24 14 -14 20 -6 11 17 -5 15 -9 16 -14
7z"/>
<path d="M368 5213 c6 -2 18 -2 25 0 6 3 1 5 -13 5 -14 0 -19 -2 -12 -5z"/>
<path d="M4446 4780 c-20 -23 -42 -52 -48 -66 -14 -30 -22 -30 -42 -2 -11 15
-16 17 -16 8 0 -8 9 -26 19 -39 l18 -23 23 38 c13 22 39 56 58 76 20 21 33 40
30 43 -3 3 -22 -13 -42 -35z"/>
<path d="M6358 4783 c-19 -21 -43 -52 -53 -70 l-18 -31 -18 21 c-10 12 -18 17
-19 11 0 -7 8 -22 19 -35 l18 -23 16 30 c9 17 34 54 57 82 48 61 48 66 -2 15z"/>
<path d="M7245 4778 c-21 -24 -42 -53 -48 -65 -13 -29 -23 -29 -37 -2 -7 11
-14 18 -17 16 -5 -5 24 -67 32 -67 3 0 17 19 31 43 14 23 42 59 62 80 20 20
31 37 25 37 -6 0 -28 -19 -48 -42z"/>
<path d="M8131 4785 c-17 -20 -39 -48 -48 -63 -9 -15 -19 -29 -21 -32 -2 -3
-12 6 -22 20 -13 17 -20 20 -20 10 0 -8 9 -26 19 -39 l19 -24 27 44 c15 24 43
61 63 82 20 20 31 37 25 37 -6 0 -25 -16 -42 -35z"/>
<path d="M8971 4775 c-23 -25 -46 -56 -53 -69 l-11 -25 -18 22 c-10 12 -18 17
-19 11 0 -7 8 -22 19 -35 l18 -23 16 30 c9 17 34 54 57 82 50 64 46 67 -9 7z"/>
<path d="M344 4735 c17 -35 34 -61 38 -57 4 4 -4 29 -17 56 -14 27 -22 52 -19
57 3 5 -3 9 -13 9 -17 0 -16 -6 11 -65z"/>
<path d="M415 4790 c3 -5 8 -10 11 -10 2 0 4 5 4 10 0 6 -5 10 -11 10 -5 0 -7
-4 -4 -10z"/>
<path d="M615 4790 c-3 -5 -1 -10 4 -10 6 0 11 5 11 10 0 6 -2 10 -4 10 -3 0
-8 -4 -11 -10z"/>
<path d="M1065 4730 c0 -49 4 -70 13 -70 8 0 12 21 12 70 0 49 -4 70 -12 70
-9 0 -13 -21 -13 -70z"/>
<path d="M1545 4730 l0 -70 36 0 c49 0 82 28 82 68 0 30 -17 62 -34 62 -4 0 0
-13 9 -30 15 -27 16 -32 2 -57 -10 -18 -25 -29 -43 -31 -27 -3 -27 -3 -27 57
0 54 2 60 23 64 15 3 10 5 -13 6 l-35 1 0 -70z"/>
<path d="M762 4730 c2 -46 7 -65 18 -67 11 -3 12 -2 3 4 -8 6 -12 30 -12 61 1
29 -1 56 -5 60 -4 3 -6 -22 -4 -58z"/>
<path d="M865 4725 c0 -36 3 -65 8 -65 4 0 7 29 7 65 0 36 -3 65 -7 65 -5 0
-8 -29 -8 -65z"/>
<path d="M1438 4774 c-11 -10 -10 -86 2 -104 5 -8 10 -12 12 -10 7 11 -7 121
-14 114z"/>
<path d="M1788 4774 c-11 -10 -10 -86 2 -104 5 -8 10 -12 12 -10 7 11 -7 121
-14 114z"/>
<path d="M570 4750 c0 -5 5 -10 11 -10 5 0 7 5 4 10 -3 6 -8 10 -11 10 -2 0
-4 -4 -4 -10z"/>
<path d="M619 4758 c-5 -20 -2 -98 4 -98 4 0 7 23 7 50 0 28 -2 50 -5 50 -3 0
-5 -1 -6 -2z"/>
<path d="M803 4750 c10 -7 17 -23 17 -42 0 -25 3 -29 12 -20 17 17 -2 66 -27
70 -18 2 -19 2 -2 -8z"/>
<path d="M958 4747 c7 -8 9 -17 5 -20 -3 -4 -1 -7 5 -7 18 0 14 27 -4 34 -13
5 -14 4 -6 -7z"/>
<path d="M1179 4747 c8 -10 12 -31 9 -52 -2 -19 0 -35 5 -35 15 0 3 93 -13 98
-13 5 -13 3 -1 -11z"/>
<path d="M1273 4749 c11 -6 17 -23 18 -47 0 -34 1 -35 11 -14 14 28 -4 72 -29
72 -17 -1 -17 -1 0 -11z"/>
<path d="M1330 4721 c0 -37 23 -72 37 -57 3 3 1 6 -5 6 -7 0 -12 17 -12 45 0
25 -4 45 -10 45 -5 0 -10 -17 -10 -39z"/>
<path d="M1388 4723 c5 -59 10 -63 11 -10 1 26 -3 47 -7 47 -4 0 -6 -17 -4
-37z"/>
<path d="M445 4740 c-3 -5 -1 -10 4 -10 6 0 11 5 11 10 0 6 -2 10 -4 10 -3 0
-8 -4 -11 -10z"/>
<path d="M490 4707 c0 -26 4 -47 9 -47 8 0 3 79 -5 89 -2 2 -4 -17 -4 -42z"/>
<path d="M539 4708 c-3 -30 0 -48 6 -48 7 0 9 15 7 38 -6 58 -9 61 -13 10z"/>
<path d="M665 4740 c-3 -5 -1 -10 4 -10 6 0 11 5 11 10 0 6 -2 10 -4 10 -3 0
-8 -4 -11 -10z"/>
<path d="M710 4707 c0 -26 4 -47 9 -47 8 0 3 79 -5 89 -2 2 -4 -17 -4 -42z"/>
<path d="M1130 4705 c0 -25 5 -45 10 -45 6 0 10 20 10 45 0 25 -4 45 -10 45
-5 0 -10 -20 -10 -45z"/>
<path d="M1230 4685 c0 -36 3 -65 8 -65 4 0 7 29 7 65 0 36 -3 65 -7 65 -5 0
-8 -29 -8 -65z"/>
<path d="M1730 4711 c0 -22 5 -43 10 -46 6 -4 10 10 10 34 0 22 -4 43 -10 46
-6 4 -10 -10 -10 -34z"/>
<path d="M1880 4711 c0 -22 5 -43 10 -46 6 -4 10 10 10 34 0 22 -4 43 -10 46
-6 4 -10 -10 -10 -34z"/>
<path d="M910 4707 c0 -25 17 -47 37 -47 8 0 5 8 -8 21 -11 11 -18 27 -15 35
3 8 1 14 -4 14 -6 0 -10 -10 -10 -23z"/>
<path d="M444 4695 c-7 -17 3 -35 18 -35 7 0 6 5 -2 15 -6 8 -9 19 -5 25 3 5
4 10 0 10 -3 0 -8 -7 -11 -15z"/>
<path d="M664 4695 c-7 -17 3 -35 18 -35 7 0 6 5 -2 15 -6 8 -9 19 -5 25 3 5
4 10 0 10 -3 0 -8 -7 -11 -15z"/>
<path d="M2798 4703 c6 -2 18 -2 25 0 6 3 1 5 -13 5 -14 0 -19 -2 -12 -5z"/>
<path d="M3593 4703 c9 -2 23 -2 30 0 6 3 -1 5 -18 5 -16 0 -22 -2 -12 -5z"/>
<path d="M5013 4703 c9 -2 23 -2 30 0 6 3 -1 5 -18 5 -16 0 -22 -2 -12 -5z"/>
<path d="M5603 4703 c9 -2 23 -2 30 0 6 3 -1 5 -18 5 -16 0 -22 -2 -12 -5z"/>
<path d="M1686 4691 c-5 -7 -3 -18 3 -24 14 -14 20 -6 11 17 -5 15 -9 16 -14
7z"/>
<path d="M1836 4691 c-5 -7 -3 -18 3 -24 14 -14 20 -6 11 17 -5 15 -9 16 -14
7z"/>
<path d="M2848 4233 c-20 -21 -45 -53 -56 -72 -20 -33 -21 -33 -34 -12 -20 33
-31 25 -11 -9 22 -38 29 -38 49 3 9 17 35 53 56 80 48 56 46 61 -4 10z"/>
<path d="M3630 4219 c-22 -28 -45 -58 -50 -67 -9 -16 -11 -15 -25 2 -8 11 -17
17 -21 14 -6 -7 24 -58 35 -58 3 0 16 18 29 41 13 22 39 58 59 80 19 21 30 39
24 39 -6 0 -29 -23 -51 -51z"/>
<path d="M4449 4233 c-18 -21 -41 -52 -52 -70 l-19 -33 -19 23 c-22 27 -25 10
-3 -21 21 -30 27 -28 47 13 9 19 35 55 58 80 23 25 37 45 31 45 -5 0 -25 -17
-43 -37z"/>
<path d="M5643 4221 c-21 -26 -43 -57 -50 -67 -12 -19 -13 -19 -28 0 -8 11
-17 17 -21 14 -6 -7 24 -58 35 -58 3 0 16 18 29 41 13 22 39 58 59 80 19 21
30 39 24 39 -6 0 -28 -22 -48 -49z"/>
<path d="M6357 4231 c-20 -22 -43 -54 -53 -72 l-16 -32 -19 24 c-10 13 -19 19
-19 13 0 -7 8 -22 18 -34 l19 -23 23 39 c13 21 39 56 58 76 20 21 33 40 30 43
-3 3 -21 -12 -41 -34z"/>
<path d="M7247 4228 c-19 -24 -42 -56 -53 -72 -18 -28 -18 -28 -28 -7 -8 19
-26 30 -26 16 0 -10 32 -55 39 -55 4 0 14 15 23 33 9 17 35 53 58 80 23 26 37
47 32 47 -6 0 -26 -19 -45 -42z"/>
<path d="M8127 4228 c-19 -24 -42 -55 -52 -70 l-17 -28 -19 23 c-23 27 -25 15
-3 -18 21 -33 27 -31 46 8 9 17 35 53 58 80 23 26 37 47 32 47 -6 0 -26 -19
-45 -42z"/>
<path d="M8978 4232 c-19 -21 -43 -53 -54 -70 l-19 -32 -17 22 c-10 13 -18 18
-18 12 0 -7 8 -22 18 -34 l19 -23 23 39 c13 21 39 56 58 76 20 21 33 40 30 43
-3 3 -21 -12 -40 -33z"/>
<path d="M320 4179 l0 -70 47 3 c31 2 48 8 51 18 4 12 2 13 -9 3 -7 -7 -26
-13 -41 -13 -25 0 -28 4 -28 31 0 29 2 31 30 27 19 -3 30 0 30 7 0 7 -11 10
-30 7 -27 -4 -30 -2 -30 23 0 25 3 27 35 23 19 -2 35 0 35 4 0 4 -20 8 -45 8
l-45 0 0 -71z"/>
<path d="M1155 4240 c-3 -5 -1 -10 4 -10 6 0 11 5 11 10 0 6 -2 10 -4 10 -3 0
-8 -4 -11 -10z"/>
<path d="M930 4181 c0 -38 4 -61 13 -64 9 -3 11 11 9 59 -5 80 -22 84 -22 5z"/>
<path d="M1099 4177 c-2 -41 0 -67 6 -67 6 0 9 20 7 48 -5 84 -8 88 -13 19z"/>
<path d="M548 4224 c-11 -10 -10 -86 2 -104 5 -8 10 -12 12 -10 7 11 -7 121
-14 114z"/>
<path d="M1209 4216 c-6 -7 2 -106 9 -106 4 0 6 23 6 50 -2 49 -6 65 -15 56z"/>
<path d="M440 4206 c0 -14 53 -96 62 -96 8 0 -24 63 -34 68 -5 2 -8 10 -8 18
0 8 -4 14 -10 14 -5 0 -10 -2 -10 -4z"/>
<path d="M639 4201 c7 -5 10 -14 7 -20 -4 -6 0 -11 8 -11 9 0 16 4 16 8 0 12
-22 32 -34 32 -6 0 -5 -4 3 -9z"/>
<path d="M739 4197 c8 -10 12 -31 9 -52 -2 -21 0 -35 7 -35 17 0 3 92 -15 98
-13 5 -13 3 -1 -11z"/>
<path d="M985 4190 c12 -13 15 -27 11 -47 -5 -21 -4 -24 4 -13 13 20 13 53 -2
68 -20 20 -32 13 -13 -8z"/>
<path d="M1159 4208 c-5 -20 -2 -98 4 -98 4 0 7 23 7 50 0 28 -2 50 -5 50 -3
0 -5 -1 -6 -2z"/>
<path d="M1273 4160 c11 -27 23 -48 25 -45 7 7 -28 95 -38 95 -5 0 1 -22 13
-50z"/>
<path d="M695 4155 c0 -25 3 -45 6 -45 4 0 9 20 11 45 2 26 -1 45 -7 45 -5 0
-10 -20 -10 -45z"/>
<path d="M880 4155 c0 -25 5 -45 10 -45 6 0 10 20 10 45 0 25 -4 45 -10 45 -5
0 -10 -20 -10 -45z"/>
<path d="M1040 4155 c0 -25 5 -45 10 -45 6 0 10 20 10 45 0 25 -4 45 -10 45
-5 0 -10 -20 -10 -45z"/>
<path d="M598 4178 c-16 -40 28 -87 56 -58 8 8 7 10 -4 6 -23 -9 -38 6 -42 39
-2 22 -5 26 -10 13z"/>
<path d="M790 4183 c0 -5 14 -20 30 -35 19 -16 30 -21 30 -13 0 8 -13 23 -30
35 -16 12 -30 18 -30 13z"/>
<path d="M5013 4153 c9 -2 23 -2 30 0 6 3 -1 5 -18 5 -16 0 -22 -2 -12 -5z"/>
<path d="M435 4120 c-3 -5 -1 -10 4 -10 6 0 11 5 11 10 0 6 -2 10 -4 10 -3 0
-8 -4 -11 -10z"/>
<path d="M1265 4080 c-16 -7 -17 -9 -3 -9 9 -1 20 4 23 9 7 11 7 11 -20 0z"/>
<path d="M6360 3683 c-18 -21 -42 -53 -54 -72 -20 -34 -20 -34 -34 -13 -22 33
-36 26 -15 -8 9 -16 21 -30 25 -30 4 0 20 19 34 43 15 23 40 57 57 74 17 18
28 35 25 38 -3 3 -20 -11 -38 -32z"/>
<path d="M8128 3678 c-18 -24 -42 -56 -51 -71 l-18 -28 -19 23 c-23 28 -27 12
-4 -20 19 -28 28 -28 42 2 5 12 31 48 56 80 26 31 42 56 37 56 -5 0 -24 -19
-43 -42z"/>
<path d="M8980 3683 c-18 -21 -42 -53 -54 -72 -20 -34 -20 -34 -34 -13 -22 33
-36 26 -15 -8 9 -16 21 -30 25 -30 4 0 20 19 34 43 15 23 40 57 57 74 17 18
28 35 25 38 -3 3 -20 -11 -38 -32z"/>
<path d="M340 3660 c11 -23 25 -53 31 -67 8 -20 12 -24 22 -14 8 8 8 14 2 19
-6 4 -20 28 -32 55 -13 26 -27 47 -33 47 -6 0 -1 -18 10 -40z"/>
<path d="M429 3679 c-8 -16 -8 -20 1 -14 9 6 11 -7 8 -49 -2 -45 0 -56 12 -56
12 0 15 14 15 70 0 73 -13 91 -36 49z"/>
<path d="M1035 3690 c-3 -5 -1 -10 4 -10 6 0 11 5 11 10 0 6 -2 10 -4 10 -3 0
-8 -4 -11 -10z"/>
<path d="M1552 3638 c17 -35 32 -65 34 -66 1 -2 8 6 14 18 8 16 9 20 1 15 -7
-4 -19 13 -33 44 -11 28 -26 51 -34 51 -8 0 -2 -21 18 -62z"/>
<path d="M1638 3690 c-8 -24 5 -130 15 -130 8 0 12 24 12 70 0 47 -4 70 -12
70 -6 0 -13 -4 -15 -10z"/>
<path d="M1705 3630 c0 -49 4 -70 13 -70 8 0 12 20 12 65 0 59 2 65 20 65 30
0 37 -30 13 -50 l-21 -17 25 -31 c13 -18 29 -32 34 -32 6 0 -1 15 -15 33 -25
32 -25 33 -6 45 11 7 20 16 20 21 0 20 -33 41 -63 41 l-32 0 0 -70z"/>
<path d="M658 3630 c-1 -33 0 -60 5 -60 4 0 7 27 7 60 0 77 -7 77 -12 0z"/>
<path d="M810 3625 c0 -37 4 -65 10 -65 6 0 10 28 10 65 0 37 -4 65 -10 65 -6
0 -10 -28 -10 -65z"/>
<path d="M1409 3679 c-4 -96 -3 -119 6 -119 10 0 11 117 1 128 -3 3 -6 -1 -7
-9z"/>
<path d="M1089 3666 c-6 -7 2 -106 9 -106 4 0 6 23 6 50 -2 49 -6 65 -15 56z"/>
<path d="M700 3621 c0 -37 23 -72 37 -57 3 3 1 6 -5 6 -7 0 -12 17 -12 45 0
25 -4 45 -10 45 -5 0 -10 -17 -10 -39z"/>
<path d="M758 3623 c5 -59 10 -63 11 -10 1 26 -3 47 -7 47 -4 0 -6 -17 -4 -37z"/>
<path d="M906 3612 c1 -25 6 -48 10 -49 10 -3 6 78 -5 89 -3 4 -5 -14 -5 -40z"/>
<path d="M990 3650 c0 -5 5 -10 11 -10 5 0 7 5 4 10 -3 6 -8 10 -11 10 -2 0
-4 -4 -4 -10z"/>
<path d="M1039 3658 c-5 -20 -2 -98 4 -98 4 0 7 23 7 50 0 28 -2 50 -5 50 -3
0 -5 -1 -6 -2z"/>
<path d="M1153 3610 c11 -27 23 -48 25 -45 7 7 -28 95 -38 95 -5 0 1 -22 13
-50z"/>
<path d="M558 3614 c3 -24 8 -32 14 -26 11 11 3 62 -10 62 -4 0 -6 -16 -4 -36z"/>
<path d="M601 3628 c-9 -25 -4 -49 13 -60 20 -14 30 -8 12 5 -14 10 -17 23
-14 45 5 37 1 41 -11 10z"/>
<path d="M959 3608 c-3 -30 0 -48 6 -48 7 0 9 15 7 38 -6 58 -9 61 -13 10z"/>
<path d="M1294 3626 c-3 -14 -1 -32 4 -42 7 -13 9 -7 8 24 -1 48 -3 52 -12 18z"/>
<path d="M1355 3611 c0 -40 9 -46 18 -12 3 11 0 27 -7 36 -9 12 -11 8 -11 -24z"/>
<path d="M1840 3638 c0 -5 11 -23 25 -40 16 -19 25 -24 25 -14 0 8 -11 26 -25
40 -14 14 -25 20 -25 14z"/>
<path d="M497 3633 c-11 -11 -8 -40 6 -51 10 -9 12 -4 9 23 -4 37 -5 39 -15
28z"/>
<path d="M864 3595 c-7 -17 3 -35 18 -35 7 0 6 5 -2 15 -6 8 -9 19 -5 25 3 5
4 10 0 10 -3 0 -8 -7 -11 -15z"/>
<path d="M2798 3603 c6 -2 18 -2 25 0 6 3 1 5 -13 5 -14 0 -19 -2 -12 -5z"/>
<path d="M3593 3603 c9 -2 23 -2 30 0 6 3 -1 5 -18 5 -16 0 -22 -2 -12 -5z"/>
<path d="M4403 3603 c9 -2 23 -2 30 0 6 3 -1 5 -18 5 -16 0 -22 -2 -12 -5z"/>
<path d="M5013 3603 c9 -2 23 -2 30 0 6 3 -1 5 -18 5 -16 0 -22 -2 -12 -5z"/>
<path d="M5603 3603 c9 -2 23 -2 30 0 6 3 -1 5 -18 5 -16 0 -22 -2 -12 -5z"/>
<path d="M7203 3603 c9 -2 23 -2 30 0 6 3 -1 5 -18 5 -16 0 -22 -2 -12 -5z"/>
<path d="M320 3570 c0 -5 5 -10 11 -10 5 0 7 5 4 10 -3 6 -8 10 -11 10 -2 0
-4 -4 -4 -10z"/>
<path d="M1145 3530 c-16 -7 -17 -9 -3 -9 9 -1 20 4 23 9 7 11 7 11 -20 0z"/>
<path d="M2848 3132 c-19 -21 -43 -53 -54 -70 -21 -37 -30 -40 -39 -12 -6 18
-25 29 -25 15 0 -11 32 -55 40 -55 5 0 19 17 32 38 12 20 38 54 57 75 18 21
32 40 29 43 -3 2 -21 -13 -40 -34z"/>
<path d="M3636 3119 c-25 -28 -46 -54 -46 -58 0 -3 -4 -13 -9 -20 -8 -12 -13
-11 -30 10 -24 28 -28 14 -5 -19 20 -30 30 -28 50 9 8 17 34 51 56 75 23 25
39 47 36 50 -3 2 -26 -18 -52 -47z"/>
<path d="M5646 3119 c-25 -28 -46 -54 -46 -58 0 -3 -4 -13 -9 -20 -8 -12 -13
-11 -30 10 -24 28 -28 14 -5 -19 20 -30 30 -28 50 9 8 17 34 51 56 75 23 25
39 47 36 50 -3 2 -26 -18 -52 -47z"/>
<path d="M4449 3123 c-20 -21 -44 -51 -53 -67 l-19 -29 -18 24 c-12 16 -19 19
-18 9 0 -8 6 -23 13 -32 14 -19 36 -24 36 -9 0 6 22 39 50 75 27 37 48 66 47
66 -2 0 -19 -17 -38 -37z"/>
<path d="M5054 3122 c-17 -20 -39 -50 -49 -65 l-19 -29 -18 24 c-12 15 -18 18
-17 8 0 -8 6 -23 13 -32 14 -19 36 -24 36 -9 0 6 22 39 50 75 52 70 56 91 4
28z"/>
<path d="M7246 3120 c-20 -23 -42 -52 -48 -66 -14 -29 -24 -30 -38 -3 -7 11
-14 18 -17 15 -7 -7 24 -56 35 -56 5 0 18 17 30 38 12 20 35 52 53 70 17 18
29 35 26 38 -2 2 -21 -14 -41 -36z"/>
<path d="M8126 3119 c-20 -22 -42 -51 -48 -65 -14 -29 -24 -30 -38 -3 -7 11
-14 18 -17 15 -7 -6 24 -56 35 -56 4 0 16 15 27 33 10 17 34 51 53 75 44 53
36 55 -12 1z"/>
<path d="M8952 3095 c-47 -66 -47 -66 -64 -44 -21 25 -24 3 -4 -23 18 -24 33
-23 41 3 4 11 27 45 51 75 24 30 40 54 34 54 -6 0 -32 -29 -58 -65z"/>
<path d="M333 3133 c-23 -9 -14 -41 17 -63 17 -12 30 -30 30 -43 0 -15 3 -18
11 -10 17 17 3 47 -31 66 -36 22 -38 34 -7 47 12 5 15 9 7 9 -8 -1 -21 -3 -27
-6z"/>
<path d="M1485 3115 c-14 -13 -25 -33 -25 -45 0 -28 44 -70 72 -69 18 1 16 3
-9 10 -59 17 -53 103 7 120 24 7 24 7 2 8 -13 1 -34 -10 -47 -24z"/>
<path d="M1566 3132 c-2 -4 -1 -14 5 -22 7 -12 9 -10 9 8 0 23 -5 28 -14 14z"/>
<path d="M1359 3119 c-4 -96 -3 -119 6 -119 10 0 11 117 1 128 -3 3 -6 -1 -7
-9z"/>
<path d="M879 3106 c-6 -7 2 -106 9 -106 4 0 6 23 6 50 -2 49 -6 65 -15 56z"/>
<path d="M2372 3061 c2 -38 8 -56 18 -59 13 -4 13 -3 2 11 -8 9 -12 32 -11 51
2 19 0 38 -4 43 -5 4 -7 -17 -5 -46z"/>
<path d="M468 3087 c7 -8 9 -17 5 -20 -3 -4 -1 -7 5 -7 18 0 14 27 -4 34 -13
5 -14 4 -6 -7z"/>
<path d="M575 3080 c12 -13 15 -27 11 -45 -4 -17 -3 -24 4 -20 14 9 13 58 -2
73 -20 20 -32 13 -13 -8z"/>
<path d="M666 3052 c1 -25 6 -48 10 -49 10 -3 6 78 -5 89 -3 4 -5 -14 -5 -40z"/>
<path d="M750 3090 c0 -5 5 -10 11 -10 5 0 7 5 4 10 -3 6 -8 10 -11 10 -2 0
-4 -4 -4 -10z"/>
<path d="M826 3052 c1 -25 6 -48 10 -49 10 -3 6 78 -5 89 -3 4 -5 -14 -5 -40z"/>
<path d="M1139 3087 c8 -10 12 -31 9 -52 -2 -21 0 -35 7 -35 17 0 3 92 -15 98
-13 5 -13 3 -1 -11z"/>
<path d="M1759 3087 c8 -10 12 -31 9 -52 -2 -21 0 -35 7 -35 17 0 3 92 -15 98
-13 5 -13 3 -1 -11z"/>
<path d="M1808 3093 c7 -3 12 -23 12 -49 0 -24 5 -44 10 -44 6 0 10 17 10 38
0 38 -14 63 -34 61 -6 0 -5 -3 2 -6z"/>
<path d="M1913 3089 c11 -6 17 -23 18 -47 0 -34 1 -35 11 -14 14 28 -4 72 -29
72 -17 -1 -17 -1 0 -11z"/>
<path d="M2119 3087 c8 -10 12 -31 9 -52 -2 -21 0 -35 7 -35 17 0 3 92 -15 98
-13 5 -13 3 -1 -11z"/>
<path d="M2217 3081 c3 -12 9 -21 14 -21 14 0 11 16 -5 29 -12 10 -13 8 -9 -8z"/>
<path d="M2319 3087 c8 -10 12 -31 9 -52 -2 -19 0 -35 5 -35 15 0 3 93 -13 98
-13 5 -13 3 -1 -11z"/>
<path d="M520 3025 c0 -37 4 -65 10 -65 6 0 10 28 10 65 0 37 -4 65 -10 65 -6
0 -10 -28 -10 -65z"/>
<path d="M719 3048 c-3 -30 0 -48 6 -48 7 0 9 15 7 38 -6 58 -9 61 -13 10z"/>
<path d="M935 3045 c0 -25 5 -45 10 -45 6 0 9 19 7 45 -2 25 -7 45 -11 45 -3
0 -6 -20 -6 -45z"/>
<path d="M1048 3054 c3 -24 8 -32 14 -26 11 11 3 62 -10 62 -4 0 -6 -16 -4
-36z"/>
<path d="M1095 3045 c0 -25 3 -45 6 -45 4 0 9 20 11 45 2 26 -1 45 -7 45 -5 0
-10 -20 -10 -45z"/>
<path d="M1244 3066 c-3 -14 -1 -32 4 -42 7 -13 9 -7 8 24 -1 48 -3 52 -12 18z"/>
<path d="M1305 3051 c0 -40 9 -46 18 -12 3 11 0 27 -7 36 -9 12 -11 8 -11 -24z"/>
<path d="M1604 3066 c-3 -14 -1 -32 4 -42 7 -13 9 -7 8 24 -1 48 -3 52 -12 18z"/>
<path d="M1665 3051 c0 -40 9 -46 18 -12 3 11 0 27 -7 36 -9 12 -11 8 -11 -24z"/>
<path d="M1710 3045 c0 -25 5 -45 10 -45 6 0 10 20 10 45 0 25 -4 45 -10 45
-5 0 -10 -20 -10 -45z"/>
<path d="M1870 3025 c0 -36 3 -65 8 -65 4 0 7 29 7 65 0 36 -3 65 -7 65 -5 0
-8 -29 -8 -65z"/>
<path d="M1977 3083 c-10 -9 -9 -61 1 -67 4 -2 8 13 7 35 0 21 0 39 -1 39 0 0
-4 -3 -7 -7z"/>
<path d="M2035 3050 c0 -21 3 -36 8 -33 10 6 9 61 -1 67 -4 2 -8 -13 -7 -34z"/>
<path d="M2075 3045 c0 -25 3 -45 6 -45 4 0 9 20 11 45 2 26 -1 45 -7 45 -5 0
-10 -20 -10 -45z"/>
<path d="M2270 3045 c0 -25 5 -45 10 -45 6 0 10 20 10 45 0 25 -4 45 -10 45
-5 0 -10 -20 -10 -45z"/>
<path d="M2430 3078 c0 -5 11 -23 25 -40 16 -19 25 -24 25 -14 0 8 -11 26 -25
40 -14 14 -25 20 -25 14z"/>
<path d="M987 3073 c-11 -11 -8 -40 6 -51 10 -9 12 -4 9 23 -4 37 -5 39 -15
28z"/>
<path d="M2171 3055 c-1 -33 14 -55 38 -55 11 0 9 4 -6 15 -12 8 -24 28 -26
43 -4 27 -4 27 -6 -3z"/>
<path d="M420 3047 c0 -25 17 -47 37 -47 8 0 5 8 -8 21 -11 11 -18 27 -15 35
3 8 1 14 -4 14 -6 0 -10 -10 -10 -23z"/>
<path d="M624 3035 c-7 -17 3 -35 18 -35 7 0 6 5 -2 15 -6 8 -9 19 -5 25 3 5
4 10 0 10 -3 0 -8 -7 -11 -15z"/>
<path d="M784 3035 c-7 -17 3 -35 18 -35 7 0 6 5 -2 15 -6 8 -9 19 -5 25 3 5
4 10 0 10 -3 0 -8 -7 -11 -15z"/>
<path d="M6313 3043 c9 -2 23 -2 30 0 6 3 -1 5 -18 5 -16 0 -22 -2 -12 -5z"/>
<path d="M5652 2576 c-16 -19 -38 -48 -48 -65 -22 -36 -29 -38 -44 -10 -7 11
-14 18 -17 16 -6 -6 28 -67 37 -67 4 0 14 16 23 35 9 19 35 55 58 80 23 25 37
45 31 45 -5 0 -23 -15 -40 -34z"/>
<path d="M8131 2575 c-17 -20 -39 -48 -48 -63 -9 -15 -19 -29 -21 -32 -2 -3
-12 6 -22 20 -13 17 -20 20 -20 10 0 -8 9 -26 19 -39 l19 -24 27 44 c15 24 43
61 63 82 20 20 31 37 25 37 -6 0 -25 -16 -42 -35z"/>
<path d="M8971 2565 c-23 -25 -46 -56 -53 -69 l-11 -25 -18 22 c-10 12 -18 17
-19 11 0 -7 8 -22 19 -35 l18 -23 16 30 c9 17 34 54 57 82 50 64 46 67 -9 7z"/>
<path d="M1035 2580 c-3 -5 -1 -10 4 -10 6 0 11 5 11 10 0 6 -2 10 -4 10 -3 0
-8 -4 -11 -10z"/>
<path d="M1262 2528 c17 -35 32 -65 34 -66 1 -2 8 6 14 18 8 16 9 20 1 15 -7
-4 -19 13 -33 44 -11 28 -26 51 -34 51 -8 0 -2 -21 18 -62z"/>
<path d="M1348 2580 c-8 -24 5 -130 15 -130 8 0 12 24 12 70 0 47 -4 70 -12
70 -6 0 -13 -4 -15 -10z"/>
<path d="M1400 2581 c0 -4 12 -6 26 -3 l26 5 -4 -67 c-2 -48 0 -66 10 -66 8 0
12 20 12 66 0 65 0 66 25 62 14 -3 25 -1 25 3 0 5 -27 9 -60 9 -33 0 -60 -4
-60 -9z"/>
<path d="M1604 2580 c16 -5 33 -15 37 -22 7 -10 9 -9 9 3 0 9 -10 19 -22 23
-36 9 -57 5 -24 -4z"/>
<path d="M1743 2583 c-23 -9 -14 -41 17 -63 17 -12 30 -30 30 -43 0 -15 3 -18
11 -10 17 17 3 47 -31 66 -36 22 -38 34 -7 47 12 5 15 9 7 9 -8 -1 -21 -3 -27
-6z"/>
<path d="M365 2570 c-4 -7 -3 -15 2 -19 6 -3 13 -16 17 -28 6 -20 4 -23 -18
-23 -14 0 -27 -4 -30 -8 -2 -4 10 -6 29 -4 27 3 34 0 40 -17 3 -12 12 -21 19
-21 9 0 3 20 -17 63 -35 74 -33 71 -42 57z"/>
<path d="M1547 2562 c-36 -40 -6 -113 46 -111 21 1 21 1 -3 8 -33 9 -48 52
-33 91 13 35 12 36 -10 12z"/>
<path d="M1935 2515 c0 -36 3 -65 8 -65 4 0 7 29 7 65 0 36 -3 65 -7 65 -5 0
-8 -29 -8 -65z"/>
<path d="M978 2564 c-11 -10 -10 -86 2 -104 5 -8 10 -12 12 -10 7 11 -7 121
-14 114z"/>
<path d="M562 2511 c2 -38 8 -56 18 -59 13 -4 13 -3 2 11 -8 9 -12 32 -11 51
2 19 0 38 -4 43 -5 4 -7 -17 -5 -46z"/>
<path d="M2172 2511 c2 -38 8 -56 18 -59 13 -4 13 -3 2 11 -8 9 -12 32 -11 51
2 19 0 38 -4 43 -5 4 -7 -17 -5 -46z"/>
<path d="M464 2506 c1 -34 6 -51 16 -54 12 -4 13 -2 3 9 -6 8 -13 32 -16 54
-4 34 -4 32 -3 -9z"/>
<path d="M510 2505 c0 -25 5 -45 10 -45 6 0 10 20 10 45 0 25 -4 45 -10 45 -5
0 -10 -20 -10 -45z"/>
<path d="M769 2537 c8 -10 12 -31 9 -52 -2 -21 0 -35 7 -35 17 0 3 92 -15 98
-13 5 -13 3 -1 -11z"/>
<path d="M818 2543 c7 -3 12 -23 12 -49 0 -24 5 -44 10 -44 6 0 10 17 10 38 0
38 -14 63 -34 61 -6 0 -5 -3 2 -6z"/>
<path d="M1039 2548 c-5 -20 -2 -98 4 -98 4 0 7 23 7 50 0 28 -2 50 -5 50 -3
0 -5 -1 -6 -2z"/>
<path d="M1120 2546 c0 -2 7 -9 15 -16 9 -7 15 -8 15 -2 0 5 -7 12 -15 16 -8
3 -15 4 -15 2z"/>
<path d="M1878 2537 c7 -8 9 -17 5 -20 -3 -4 -1 -7 5 -7 18 0 14 27 -4 34 -13
5 -14 4 -6 -7z"/>
<path d="M2028 2537 c7 -8 9 -17 5 -20 -3 -4 -1 -7 5 -7 18 0 14 27 -4 34 -13
5 -14 4 -6 -7z"/>
<path d="M2126 2537 c3 -10 9 -15 12 -12 3 3 0 11 -7 18 -10 9 -11 8 -5 -6z"/>
<path d="M2428 2543 c7 -3 12 -23 12 -49 0 -24 5 -44 10 -44 13 0 13 56 0 81
-6 10 -16 19 -23 18 -9 0 -9 -2 1 -6z"/>
<path d="M678 2504 c3 -24 8 -32 14 -26 11 11 3 62 -10 62 -4 0 -6 -16 -4 -36z"/>
<path d="M720 2495 c0 -25 5 -45 10 -45 6 0 10 20 10 45 0 25 -4 45 -10 45 -5
0 -10 -20 -10 -45z"/>
<path d="M920 2501 c0 -22 5 -43 10 -46 6 -4 10 10 10 34 0 22 -4 43 -10 46
-6 4 -10 -10 -10 -34z"/>
<path d="M1084 2526 c-16 -42 22 -94 48 -68 11 11 10 12 -3 7 -22 -8 -42 20
-37 50 6 27 1 34 -8 11z"/>
<path d="M2230 2495 c0 -25 5 -45 10 -45 6 0 10 20 10 45 0 25 -4 45 -10 45
-5 0 -10 -20 -10 -45z"/>
<path d="M2284 2516 c-3 -14 -1 -32 4 -42 7 -13 9 -7 8 24 -1 48 -3 52 -12 18z"/>
<path d="M2345 2501 c0 -40 9 -46 18 -12 3 11 0 27 -7 36 -9 12 -11 8 -11 -24z"/>
<path d="M2385 2495 c0 -25 5 -45 10 -45 6 0 10 20 10 45 0 25 -4 45 -10 45
-5 0 -10 -20 -10 -45z"/>
<path d="M617 2523 c-11 -11 -8 -40 6 -51 10 -9 12 -4 9 23 -4 37 -5 39 -15
28z"/>
<path d="M1830 2497 c0 -25 17 -47 37 -47 8 0 5 8 -8 21 -11 11 -18 27 -15 35
3 8 1 14 -4 14 -6 0 -10 -10 -10 -23z"/>
<path d="M1980 2497 c0 -25 17 -47 37 -47 8 0 5 8 -8 21 -11 11 -18 27 -15 35
3 8 1 14 -4 14 -6 0 -10 -10 -10 -23z"/>
<path d="M2071 2507 c-1 -28 18 -57 37 -57 16 1 16 1 0 14 -10 7 -22 24 -27
37 -7 18 -10 20 -10 6z"/>
<path d="M2798 2493 c6 -2 18 -2 25 0 6 3 1 5 -13 5 -14 0 -19 -2 -12 -5z"/>
<path d="M3593 2493 c9 -2 23 -2 30 0 6 3 -1 5 -18 5 -16 0 -22 -2 -12 -5z"/>
<path d="M4403 2493 c9 -2 23 -2 30 0 6 3 -1 5 -18 5 -16 0 -22 -2 -12 -5z"/>
<path d="M5013 2493 c9 -2 23 -2 30 0 6 3 -1 5 -18 5 -16 0 -22 -2 -12 -5z"/>
<path d="M6313 2493 c9 -2 23 -2 30 0 6 3 -1 5 -18 5 -16 0 -22 -2 -12 -5z"/>
<path d="M7203 2493 c9 -2 23 -2 30 0 6 3 -1 5 -18 5 -16 0 -22 -2 -12 -5z"/>
<path d="M876 2481 c-5 -7 -3 -18 3 -24 14 -14 20 -6 11 17 -5 15 -9 16 -14 7z"/>
<path d="M315 2460 c-3 -5 -1 -10 4 -10 6 0 11 5 11 10 0 6 -2 10 -4 10 -3 0
-8 -4 -11 -10z"/>
<path d="M4449 2023 c-18 -21 -41 -52 -52 -70 l-19 -33 -19 23 c-22 27 -25 10
-3 -21 21 -30 27 -28 47 13 9 19 35 55 58 80 23 25 37 45 31 45 -5 0 -25 -17
-43 -37z"/>
<path d="M5060 2023 c-18 -21 -42 -52 -53 -70 l-19 -33 -19 23 c-10 12 -18 17
-19 11 0 -7 8 -22 19 -35 l18 -23 28 45 c15 24 41 59 58 76 17 18 28 35 25 38
-3 3 -20 -11 -38 -32z"/>
<path d="M5643 2011 c-21 -26 -43 -57 -50 -67 -12 -19 -13 -19 -28 0 -8 11
-17 17 -21 14 -6 -7 24 -58 35 -58 3 0 16 18 29 41 13 22 39 58 59 80 19 21
30 39 24 39 -6 0 -28 -22 -48 -49z"/>
<path d="M6357 2021 c-20 -22 -43 -54 -53 -72 l-16 -32 -19 24 c-10 13 -19 19
-19 13 0 -7 8 -22 18 -34 l19 -23 23 39 c13 21 39 56 58 76 20 21 33 40 30 43
-3 3 -21 -12 -41 -34z"/>
<path d="M7247 2018 c-19 -24 -42 -55 -52 -70 l-17 -28 -19 23 c-23 27 -25 15
-3 -18 21 -33 27 -31 46 8 9 17 35 53 58 80 23 26 37 47 32 47 -6 0 -26 -19
-45 -42z"/>
<path d="M8127 2018 c-19 -24 -42 -55 -52 -70 l-17 -28 -19 23 c-23 27 -25 15
-3 -18 21 -33 27 -31 46 8 9 17 35 53 58 80 23 26 37 47 32 47 -6 0 -26 -19
-45 -42z"/>
<path d="M8977 2021 c-20 -22 -43 -54 -53 -72 l-16 -32 -19 24 c-10 13 -19 19
-19 13 0 -7 8 -22 18 -34 l19 -23 23 39 c13 21 39 56 58 76 20 21 33 40 30 43
-3 3 -21 -12 -41 -34z"/>
<path d="M320 1970 c0 -51 4 -70 13 -70 9 0 12 10 9 30 -6 39 10 38 42 -2 14
-18 27 -30 31 -27 3 3 -5 18 -17 34 -19 25 -20 28 -5 37 40 22 8 68 -47 68
-25 0 -26 -2 -26 -70z m65 30 c0 -18 -6 -26 -22 -28 -20 -3 -23 1 -23 28 0 27
3 31 23 28 16 -2 22 -10 22 -28z"/>
<path d="M822 1961 c2 -38 8 -56 18 -59 13 -4 13 -3 2 11 -8 9 -12 32 -11 51
2 19 0 38 -4 43 -5 4 -7 -17 -5 -46z"/>
<path d="M488 1987 c7 -8 9 -17 5 -20 -3 -4 -1 -7 5 -7 18 0 14 27 -4 34 -13
5 -14 4 -6 -7z"/>
<path d="M583 1989 c11 -6 17 -23 18 -47 0 -34 1 -35 11 -14 14 28 -4 72 -29
72 -17 -1 -17 -1 0 -11z"/>
<path d="M780 1990 c0 -5 5 -10 11 -10 5 0 7 5 4 10 -3 6 -8 10 -11 10 -2 0
-4 -4 -4 -10z"/>
<path d="M979 1987 c8 -10 12 -31 9 -52 -2 -21 0 -35 7 -35 17 0 3 92 -15 98
-13 5 -13 3 -1 -11z"/>
<path d="M1078 1988 c7 -7 12 -21 13 -32 1 -18 2 -17 8 4 4 15 3 28 -3 32 -18
12 -31 9 -18 -4z"/>
<path d="M540 1925 c0 -36 3 -65 8 -65 4 0 7 29 7 65 0 36 -3 65 -7 65 -5 0
-8 -29 -8 -65z"/>
<path d="M647 1983 c-10 -9 -9 -61 1 -67 4 -2 8 13 7 35 0 21 0 39 -1 39 0 0
-4 -3 -7 -7z"/>
<path d="M705 1950 c0 -21 3 -36 8 -33 10 6 9 61 -1 67 -4 2 -8 -13 -7 -34z"/>
<path d="M749 1948 c-3 -30 0 -48 6 -48 7 0 9 15 7 38 -6 58 -9 61 -13 10z"/>
<path d="M880 1945 c0 -25 5 -45 10 -45 6 0 10 20 10 45 0 25 -4 45 -10 45 -5
0 -10 -20 -10 -45z"/>
<path d="M935 1945 c0 -25 3 -45 6 -45 4 0 9 20 11 45 2 26 -1 45 -7 45 -5 0
-10 -20 -10 -45z"/>
<path d="M1041 1963 c-1 -12 4 -25 9 -28 12 -7 12 2 0 30 -8 19 -9 19 -9 -2z"/>
<path d="M440 1947 c0 -25 17 -47 37 -47 8 0 5 8 -8 21 -11 11 -18 27 -15 35
3 8 1 14 -4 14 -6 0 -10 -10 -10 -23z"/>
<path d="M2798 1943 c6 -2 18 -2 25 0 6 3 1 5 -13 5 -14 0 -19 -2 -12 -5z"/>
<path d="M3593 1943 c9 -2 23 -2 30 0 6 3 -1 5 -18 5 -16 0 -22 -2 -12 -5z"/>
<path d="M1040 1908 c0 -4 16 -8 35 -8 19 0 35 2 35 4 0 2 -16 6 -35 8 -19 2
-35 0 -35 -4z"/>
<path d="M1033 1880 c2 -8 16 -16 33 -17 25 -1 26 0 4 4 -14 3 -29 10 -33 17
-6 7 -7 6 -4 -4z"/>
<path d="M8980 1473 c-18 -21 -42 -53 -54 -72 -20 -34 -20 -34 -34 -13 -22 33
-36 26 -15 -8 9 -16 21 -30 25 -30 4 0 20 19 34 43 15 23 40 57 57 74 17 18
28 35 25 38 -3 3 -20 -11 -38 -32z"/>
<path d="M384 1480 c16 -5 33 -15 37 -22 7 -10 9 -9 9 3 0 9 -10 19 -22 23
-36 9 -57 5 -24 -4z"/>
<path d="M1612 1478 c-19 -19 -14 -31 25 -65 37 -32 37 -33 19 -48 -11 -8 -15
-15 -10 -15 16 0 34 22 34 41 0 10 -13 27 -30 39 -34 24 -39 46 -12 53 13 4
13 5 2 6 -9 0 -21 -4 -28 -11z"/>
<path d="M327 1462 c-36 -40 -6 -113 46 -111 21 1 21 1 -3 8 -33 9 -48 52 -33
91 13 35 12 36 -10 12z"/>
<path d="M1489 1469 c-4 -96 -3 -119 6 -119 10 0 11 117 1 128 -3 3 -6 -1 -7
-9z"/>
<path d="M1889 1456 c-6 -7 2 -106 9 -106 4 0 6 23 6 50 -2 49 -6 65 -15 56z"/>
<path d="M609 1437 c8 -10 12 -31 9 -52 -2 -19 0 -35 5 -35 15 0 3 93 -13 98
-13 5 -13 3 -1 -11z"/>
<path d="M660 1443 c5 -2 10 -25 10 -49 0 -24 4 -44 8 -44 13 0 -2 93 -16 96
-7 1 -8 0 -2 -3z"/>
<path d="M764 1437 c14 -10 17 -22 14 -46 -3 -20 -1 -28 5 -22 14 14 11 62 -4
72 -22 14 -35 10 -15 -4z"/>
<path d="M945 1440 c3 -5 8 -10 11 -10 2 0 4 5 4 10 0 6 -5 10 -11 10 -5 0 -7
-4 -4 -10z"/>
<path d="M1269 1437 c8 -10 12 -31 9 -52 -2 -21 0 -35 7 -35 17 0 3 92 -15 98
-13 5 -13 3 -1 -11z"/>
<path d="M1723 1400 c11 -27 23 -48 25 -45 7 7 -28 95 -38 95 -5 0 1 -22 13
-50z"/>
<path d="M1987 1431 c3 -12 9 -21 14 -21 14 0 11 16 -5 29 -12 10 -13 8 -9 -8z"/>
<path d="M2089 1437 c8 -10 12 -31 9 -52 -2 -19 0 -35 5 -35 15 0 3 93 -13 98
-13 5 -13 3 -1 -11z"/>
<path d="M2140 1443 c5 -2 10 -25 10 -49 0 -24 4 -44 8 -44 13 0 -2 93 -16 96
-7 1 -8 0 -2 -3z"/>
<path d="M457 1433 c-10 -9 -9 -61 1 -67 4 -2 8 13 7 35 0 21 0 39 -1 39 0 0
-4 -3 -7 -7z"/>
<path d="M515 1400 c0 -21 3 -36 8 -33 10 6 9 61 -1 67 -4 2 -8 -13 -7 -34z"/>
<path d="M560 1395 c0 -25 3 -45 8 -45 4 0 7 20 7 45 0 25 -3 45 -7 45 -5 0
-8 -20 -8 -45z"/>
<path d="M719 1373 c5 -69 8 -65 13 20 2 27 -1 47 -7 47 -6 0 -8 -26 -6 -67z"/>
<path d="M860 1401 c0 -22 5 -43 10 -46 6 -4 10 10 10 34 0 22 -4 43 -10 46
-6 4 -10 -10 -10 -34z"/>
<path d="M910 1395 c0 -25 5 -45 10 -45 6 0 10 20 10 45 0 25 -4 45 -10 45 -5
0 -10 -20 -10 -45z"/>
<path d="M985 1395 c0 -25 5 -45 10 -45 6 0 9 19 7 45 -2 25 -7 45 -11 45 -3
0 -6 -20 -6 -45z"/>
<path d="M1040 1428 c0 -5 11 -23 25 -40 16 -19 25 -24 25 -14 0 8 -11 26 -25
40 -14 14 -25 20 -25 14z"/>
<path d="M1178 1404 c3 -24 8 -32 14 -26 11 11 3 62 -10 62 -4 0 -6 -16 -4
-36z"/>
<path d="M1225 1395 c0 -25 3 -45 6 -45 4 0 9 20 11 45 2 26 -1 45 -7 45 -5 0
-10 -20 -10 -45z"/>
<path d="M1374 1416 c-3 -14 -1 -32 4 -42 7 -13 9 -7 8 24 -1 48 -3 52 -12 18z"/>
<path d="M1435 1401 c0 -40 9 -46 18 -12 3 11 0 27 -7 36 -9 12 -11 8 -11 -24z"/>
<path d="M1810 1428 c0 -5 11 -23 25 -40 16 -19 25 -24 25 -14 0 8 -11 26 -25
40 -14 14 -25 20 -25 14z"/>
<path d="M2040 1395 c0 -25 3 -45 8 -45 4 0 7 20 7 45 0 25 -3 45 -7 45 -5 0
-8 -20 -8 -45z"/>
<path d="M1117 1423 c-11 -11 -8 -40 6 -51 10 -9 12 -4 9 23 -4 37 -5 39 -15
28z"/>
<path d="M1941 1405 c-1 -33 14 -55 38 -55 11 0 9 4 -6 15 -12 8 -24 28 -26
43 -4 27 -4 27 -6 -3z"/>
<path d="M2190 1423 c0 -5 14 -20 30 -35 19 -16 30 -21 30 -13 0 8 -13 23 -30
35 -16 12 -30 18 -30 13z"/>
<path d="M2798 1393 c6 -2 18 -2 25 0 6 3 1 5 -13 5 -14 0 -19 -2 -12 -5z"/>
<path d="M3593 1393 c9 -2 23 -2 30 0 6 3 -1 5 -18 5 -16 0 -22 -2 -12 -5z"/>
<path d="M4403 1393 c9 -2 23 -2 30 0 6 3 -1 5 -18 5 -16 0 -22 -2 -12 -5z"/>
<path d="M5013 1393 c9 -2 23 -2 30 0 6 3 -1 5 -18 5 -16 0 -22 -2 -12 -5z"/>
<path d="M5603 1393 c9 -2 23 -2 30 0 6 3 -1 5 -18 5 -16 0 -22 -2 -12 -5z"/>
<path d="M6313 1393 c9 -2 23 -2 30 0 6 3 -1 5 -18 5 -16 0 -22 -2 -12 -5z"/>
<path d="M7203 1393 c9 -2 23 -2 30 0 6 3 -1 5 -18 5 -16 0 -22 -2 -12 -5z"/>
<path d="M8083 1393 c9 -2 23 -2 30 0 6 3 -1 5 -18 5 -16 0 -22 -2 -12 -5z"/>
<path d="M816 1381 c-5 -7 -3 -18 3 -24 14 -14 20 -6 11 17 -5 15 -9 16 -14 7z"/>
<path d="M1715 1320 c-16 -7 -17 -9 -3 -9 9 -1 20 4 23 9 7 11 7 11 -20 0z"/>
<path d="M8952 885 c-47 -66 -47 -66 -64 -44 -21 25 -24 3 -4 -23 18 -24 33
-23 41 3 4 11 27 45 51 75 24 30 40 54 34 54 -6 0 -32 -29 -58 -65z"/>
<path d="M320 860 c0 -51 4 -70 13 -70 9 0 12 9 9 28 -3 24 1 29 30 37 60 18
42 75 -24 75 l-28 0 0 -70z m65 30 c0 -18 -6 -26 -22 -28 -20 -3 -23 1 -23 28
0 27 3 31 23 28 16 -2 22 -10 22 -28z"/>
<path d="M802 851 c2 -38 8 -56 18 -59 13 -4 13 -3 2 11 -8 9 -12 32 -11 51 2
19 0 38 -4 43 -5 4 -7 -17 -5 -46z"/>
<path d="M467 871 c3 -12 9 -21 14 -21 14 0 11 16 -5 29 -12 10 -13 8 -9 -8z"/>
<path d="M550 880 c0 -5 5 -10 11 -10 5 0 7 5 4 10 -3 6 -8 10 -11 10 -2 0 -4
-4 -4 -10z"/>
<path d="M897 871 c3 -12 9 -21 14 -21 14 0 11 16 -5 29 -12 10 -13 8 -9 -8z"/>
<path d="M988 883 c7 -3 12 -23 12 -49 0 -24 5 -44 10 -44 13 0 13 56 0 81 -6
10 -16 19 -23 18 -9 0 -9 -2 1 -6z"/>
<path d="M1096 877 c3 -10 9 -15 12 -12 3 3 0 11 -7 18 -10 9 -11 8 -5 -6z"/>
<path d="M1179 881 c7 -5 10 -14 7 -20 -4 -6 0 -11 8 -11 9 0 16 4 16 8 0 12
-22 32 -34 32 -6 0 -5 -4 3 -9z"/>
<path d="M519 838 c-3 -30 0 -48 6 -48 7 0 9 15 7 38 -6 58 -9 61 -13 10z"/>
<path d="M670 835 c0 -25 5 -45 10 -45 6 0 10 20 10 45 0 25 -4 45 -10 45 -5
0 -10 -20 -10 -45z"/>
<path d="M720 866 c0 -15 50 -60 57 -52 3 3 -8 19 -26 35 -17 16 -31 24 -31
17z"/>
<path d="M945 835 c0 -25 5 -45 10 -45 6 0 10 20 10 45 0 25 -4 45 -10 45 -5
0 -10 -20 -10 -45z"/>
<path d="M421 845 c-1 -33 14 -55 38 -55 11 0 9 4 -6 15 -12 8 -24 28 -26 43
-4 27 -4 27 -6 -3z"/>
<path d="M580 863 c0 -5 14 -20 30 -35 19 -16 30 -21 30 -13 0 8 -13 23 -30
35 -16 12 -30 18 -30 13z"/>
<path d="M851 845 c-1 -33 14 -55 38 -55 11 0 9 4 -6 15 -12 8 -24 28 -26 43
-4 27 -4 27 -6 -3z"/>
<path d="M1138 858 c-16 -40 28 -87 56 -58 8 8 7 10 -4 6 -23 -9 -38 6 -42 39
-2 22 -5 26 -10 13z"/>
<path d="M1041 847 c-1 -28 18 -57 37 -57 16 1 16 1 0 14 -10 7 -22 24 -27 37
-7 18 -10 20 -10 6z"/>
<path d="M2798 833 c6 -2 18 -2 25 0 6 3 1 5 -13 5 -14 0 -19 -2 -12 -5z"/>
<path d="M3593 833 c9 -2 23 -2 30 0 6 3 -1 5 -18 5 -16 0 -22 -2 -12 -5z"/>
<path d="M4403 833 c9 -2 23 -2 30 0 6 3 -1 5 -18 5 -16 0 -22 -2 -12 -5z"/>
<path d="M5013 833 c9 -2 23 -2 30 0 6 3 -1 5 -18 5 -16 0 -22 -2 -12 -5z"/>
<path d="M5603 833 c9 -2 23 -2 30 0 6 3 -1 5 -18 5 -16 0 -22 -2 -12 -5z"/>
<path d="M6313 833 c9 -2 23 -2 30 0 6 3 -1 5 -18 5 -16 0 -22 -2 -12 -5z"/>
<path d="M7203 833 c9 -2 23 -2 30 0 6 3 -1 5 -18 5 -16 0 -22 -2 -12 -5z"/>
<path d="M8083 833 c9 -2 23 -2 30 0 6 3 -1 5 -18 5 -16 0 -22 -2 -12 -5z"/>
<path d="M3642 366 c-16 -19 -38 -48 -48 -65 -22 -36 -29 -38 -44 -10 -7 11
-14 18 -17 16 -6 -6 28 -67 37 -67 4 0 14 16 23 35 9 19 35 55 58 80 23 25 37
45 31 45 -5 0 -23 -15 -40 -34z"/>
<path d="M5058 362 c-19 -21 -43 -53 -53 -70 l-19 -31 -18 27 c-10 16 -18 21
-18 12 0 -8 9 -26 19 -39 l19 -24 17 32 c9 18 35 53 57 77 23 25 39 47 36 49
-3 3 -21 -12 -40 -33z"/>
<path d="M5652 366 c-16 -19 -38 -48 -48 -65 -22 -36 -29 -38 -44 -10 -7 11
-14 18 -17 16 -6 -6 28 -67 37 -67 4 0 14 16 23 35 9 19 35 55 58 80 23 25 37
45 31 45 -5 0 -23 -15 -40 -34z"/>
<path d="M6358 363 c-19 -21 -43 -52 -53 -70 l-18 -31 -18 21 c-10 12 -18 17
-19 11 0 -7 8 -22 19 -35 l18 -23 16 30 c9 17 34 54 57 82 48 61 48 66 -2 15z"/>
<path d="M7245 358 c-21 -24 -42 -53 -48 -65 -13 -29 -23 -29 -37 -2 -7 11
-14 18 -17 16 -5 -5 24 -67 32 -67 3 0 17 19 31 43 14 23 42 59 62 80 20 20
31 37 25 37 -6 0 -28 -19 -48 -42z"/>
<path d="M8978 363 c-19 -21 -43 -52 -53 -70 l-18 -31 -18 21 c-10 12 -18 17
-19 11 0 -7 8 -22 19 -35 l18 -23 16 30 c9 17 34 54 57 82 48 61 48 66 -2 15z"/>
<path d="M320 351 c-19 -37 -5 -101 22 -101 9 0 9 3 0 12 -16 16 -16 80 0 96
9 9 9 12 0 12 -6 0 -16 -9 -22 -19z"/>
<path d="M413 341 c9 -24 9 -38 0 -62 -9 -23 -9 -29 0 -26 32 10 32 104 0 114
-9 3 -9 -3 0 -26z"/>
<path d="M817 357 c-6 -16 26 -57 44 -57 14 0 19 -33 8 -46 -9 -12 -9 -13 4
-8 30 11 28 36 -6 68 -19 17 -36 38 -39 46 -3 11 -6 10 -11 -3z"/>
<path d="M875 360 c3 -5 8 -10 11 -10 2 0 4 5 4 10 0 6 -5 10 -11 10 -5 0 -7
-4 -4 -10z"/>
<path d="M514 327 c14 -10 17 -22 14 -46 -3 -20 -1 -28 5 -22 14 14 11 62 -4
72 -22 14 -35 10 -15 -4z"/>
<path d="M607 321 c3 -12 9 -21 14 -21 14 0 11 16 -5 29 -12 10 -13 8 -9 -8z"/>
<path d="M709 327 c8 -10 12 -31 9 -52 -2 -19 0 -35 5 -35 15 0 3 93 -13 98
-13 5 -13 3 -1 -11z"/>
<path d="M1034 296 c1 -34 6 -51 16 -54 12 -4 13 -2 3 9 -6 8 -13 32 -16 54
-4 34 -4 32 -3 -9z"/>
<path d="M1080 295 c0 -25 5 -45 10 -45 6 0 10 20 10 45 0 25 -4 45 -10 45 -5
0 -10 -20 -10 -45z"/>
<path d="M1139 338 c-5 -20 -2 -98 4 -98 4 0 7 23 7 50 0 28 -2 50 -5 50 -3 0
-5 -1 -6 -2z"/>
<path d="M1246 327 c3 -10 9 -15 12 -12 3 3 0 11 -7 18 -10 9 -11 8 -5 -6z"/>
<path d="M1329 331 c7 -5 10 -14 7 -20 -4 -6 0 -11 8 -11 9 0 16 4 16 8 0 12
-22 32 -34 32 -6 0 -5 -4 3 -9z"/>
<path d="M469 263 c5 -69 8 -65 13 20 2 27 -1 47 -7 47 -6 0 -8 -26 -6 -67z"/>
<path d="M660 285 c0 -25 5 -45 10 -45 6 0 10 20 10 45 0 25 -4 45 -10 45 -5
0 -10 -20 -10 -45z"/>
<path d="M924 306 c-3 -14 -1 -32 4 -42 7 -13 9 -7 8 24 -1 48 -3 52 -12 18z"/>
<path d="M985 291 c0 -40 9 -46 18 -12 3 11 0 27 -7 36 -9 12 -11 8 -11 -24z"/>
<path d="M561 295 c-1 -33 14 -55 38 -55 11 0 9 4 -6 15 -12 8 -24 28 -26 43
-4 27 -4 27 -6 -3z"/>
<path d="M1288 308 c-16 -40 28 -87 56 -58 8 8 7 10 -4 6 -23 -9 -38 6 -42 39
-2 22 -5 26 -10 13z"/>
<path d="M1191 297 c-1 -28 18 -57 37 -57 16 1 16 1 0 14 -10 7 -22 24 -27 37
-7 18 -10 20 -10 6z"/>
<path d="M2798 283 c6 -2 18 -2 25 0 6 3 1 5 -13 5 -14 0 -19 -2 -12 -5z"/>
<path d="M4403 283 c9 -2 23 -2 30 0 6 3 -1 5 -18 5 -16 0 -22 -2 -12 -5z"/>
<path d="M8083 283 c9 -2 23 -2 30 0 6 3 -1 5 -18 5 -16 0 -22 -2 -12 -5z"/>
<path d="M810 260 c0 -5 5 -10 11 -10 5 0 7 5 4 10 -3 6 -8 10 -11 10 -2 0 -4
-4 -4 -10z"/>
<path d="M300 110 c0 -7 1512 -10 4515 -10 3003 0 4515 3 4515 10 0 7 -1512
10 -4515 10 -3003 0 -4515 -3 -4515 -10z"/>
</g>
</svg>
